<svg width="543" height="154" viewBox="0 0 543 154" fill="none" xmlns="http://www.w3.org/2000/svg">
<path d="M1.76562 59.9772V4.32422H13.5286V59.9772H1.76562Z" fill="#2A317C"/>
<path d="M42.2847 60.932C38.3184 60.9476 34.3739 60.344 30.5938 59.143C27.3212 58.1894 24.2647 56.6099 21.5938 54.492L25.5877 44.7921C27.9317 46.5791 30.5414 47.9875 33.3217 48.966C36.2158 50.0379 39.2766 50.5898 42.3627 50.596C44.2672 50.6562 46.1685 50.4011 47.9897 49.841C49.228 49.4666 50.3273 48.7333 51.1487 47.734C51.823 46.8425 52.1808 45.7517 52.1657 44.634C52.1918 43.9606 52.0609 43.2903 51.7832 42.6763C51.5055 42.0622 51.0887 41.5212 50.5658 41.096C49.3089 40.1224 47.88 39.394 46.3537 38.949C44.6111 38.393 42.6864 37.863 40.5797 37.359C38.4429 36.8473 36.3343 36.2238 34.2627 35.491C32.2254 34.7835 30.2855 33.8219 28.4887 32.629C26.7308 31.4464 25.2756 29.8669 24.2407 28.018C23.0698 25.7631 22.5067 23.2419 22.6067 20.703C22.5468 17.5518 23.4128 14.4523 25.0974 11.7885C26.7819 9.12471 29.2111 7.01369 32.0837 5.71704C35.8342 4.03375 39.9202 3.23126 44.0287 3.37105C47.216 3.36997 50.3897 3.78445 53.4697 4.60403C56.3994 5.35076 59.1764 6.60288 61.6757 8.30405L58.0447 18.083C55.8297 16.6721 53.4367 15.5624 50.9287 14.783C48.6699 14.0853 46.3208 13.7238 43.9567 13.71C42.0545 13.6487 40.1576 13.9452 38.3647 14.584C37.122 15.0123 36.035 15.8012 35.2427 16.85C34.6055 17.8013 34.276 18.9253 34.2987 20.07C34.2782 20.7313 34.4121 21.3882 34.6898 21.9887C34.9676 22.5891 35.3815 23.1166 35.8987 23.529C37.1516 24.4999 38.5825 25.2157 40.1107 25.636C41.8527 26.1694 43.7771 26.699 45.8837 27.225C47.9904 27.751 50.0961 28.3607 52.2007 29.054C54.2435 29.7128 56.186 30.6492 57.9737 31.837C59.7322 33.0191 61.1875 34.5988 62.2217 36.448C63.3877 38.6761 63.9513 41.1701 63.8567 43.683C63.883 46.7142 63.0509 49.6909 61.4567 52.269C59.7127 54.9956 57.2319 57.1723 54.3017 58.547C50.5346 60.2611 46.421 61.0775 42.2847 60.932Z" fill="#2A317C"/>
<path d="M71.9102 59.9772V4.32422H81.6422L111.632 44.3942H106.912V4.32422H118.531V59.9772H108.873L78.8102 19.9072H83.5292V59.9772H71.9102Z" fill="#2A317C"/>
<path d="M154.914 60.932C151.166 60.9655 147.45 60.2491 143.984 58.825C140.678 57.4625 137.696 55.418 135.234 52.825C132.735 50.1806 130.774 47.0752 129.461 43.682C126.701 36.2444 126.701 28.0635 129.461 20.626C130.777 17.2258 132.751 14.1187 135.271 11.483C137.743 8.90116 140.722 6.8584 144.022 5.48299C147.676 4.02717 151.584 3.3128 155.517 3.38147C159.45 3.45015 163.33 4.30048 166.932 5.88298C170.486 7.54973 173.569 10.0775 175.9 13.237L168.348 20.869C166.781 18.8444 164.801 17.1775 162.539 15.98C160.378 14.8866 157.987 14.3276 155.566 14.35C153.323 14.325 151.1 14.7578 149.031 15.622C147.068 16.4547 145.309 17.7023 143.875 19.279C142.391 20.9219 141.244 22.8397 140.499 24.924C138.901 29.6147 138.901 34.7022 140.499 39.393C141.244 41.4775 142.391 43.3954 143.875 45.038C145.309 46.6156 147.068 47.8636 149.031 48.696C151.1 49.5606 153.323 49.9935 155.566 49.968C157.987 49.9908 160.378 49.4318 162.539 48.338C164.816 47.1272 166.799 45.4309 168.348 43.369L175.9 50.992C173.564 54.1563 170.483 56.696 166.932 58.386C163.168 60.127 159.06 60.9972 154.914 60.932Z" fill="#2A317C"/>
<path d="M252.074 59.9783V4.32527H261.806L291.8 44.3923H287.079V4.32227H298.7V59.9753H289.042L258.979 19.9053H263.698V59.9753L252.074 59.9783Z" fill="#2A317C"/>
<path d="M165.924 104.602L163.641 108.592V121.371H155.441V77.082H163.641V94.037L165.748 89.103L171.485 77.082H180.971L170.549 96.441L182.727 121.366H173.359L165.924 104.602Z" fill="#EE7B65"/>
<path d="M187.176 107.005V91.4423C187.176 81.9523 192.152 76.3223 200.466 76.3223C208.78 76.3223 213.757 81.9523 213.757 91.4423V107.005C213.757 116.494 208.78 122.124 200.466 122.124C192.152 122.124 187.176 116.491 187.176 107.005ZM205.15 107.005V91.4423C205.15 87.2673 203.569 85.0533 200.466 85.0533C197.363 85.0533 195.782 87.2673 195.782 91.4423V107.005C195.782 111.18 197.363 113.395 200.466 113.395C203.569 113.395 205.15 111.18 205.15 107.005Z" fill="#EE7B65"/>
<path d="M221.602 107.827V90.6193C221.602 81.2573 226.285 76.1953 234.302 76.1953C242.502 76.1953 247.065 81.2573 247.357 90.6193H239.044C238.81 86.5703 237.404 84.9263 234.244 84.9263C231.727 84.9263 230.263 86.6973 230.263 90.6193V107.827C230.263 111.627 231.663 113.395 234.244 113.395C237.464 113.395 238.928 111.749 239.162 107.827H247.476C247.3 117.127 242.558 122.127 234.244 122.127C226.283 122.124 221.602 117.127 221.602 107.827Z" fill="#EE7B65"/>
<path d="M280.376 77.082V121.366H272.004V103.336H263.572V121.366H255.199V77.082H263.571V94.7921H272.003V77.082H280.376Z" fill="#EE7B65"/>
<path d="M298.876 77.082V121.366H290.562V77.082H298.876Z" fill="#EE7B65"/>
<path d="M117.838 87.1712V88.8712C117.838 92.3282 116.254 94.0562 113.686 94.0562C111.142 94.0562 109.557 92.3762 109.461 89.5202H111.814C111.886 91.1282 112.514 91.8002 113.686 91.8002C114.838 91.8002 115.486 91.0802 115.486 88.9002V87.1482C115.486 85.3232 114.935 84.6042 113.735 84.6042C113.279 84.5834 112.833 84.7387 112.489 85.0379C112.145 85.3371 111.93 85.7572 111.887 86.2112H109.602V76.9922H117.302V79.0812H111.926V83.0662C112.539 82.6196 113.28 82.3834 114.038 82.3932C116.302 82.3922 117.838 84.0992 117.838 87.1712Z" fill="#231F20"/>
<path d="M128.373 87.1712V88.8712C128.373 92.3282 126.789 94.0562 124.221 94.0562C121.677 94.0562 120.092 92.3762 119.996 89.5202H122.349C122.421 91.1282 123.049 91.8002 124.221 91.8002C125.373 91.8002 126.021 91.0802 126.021 88.9002V87.1482C126.021 85.3232 125.469 84.6042 124.269 84.6042C123.814 84.5834 123.368 84.7387 123.024 85.0379C122.68 85.3371 122.464 85.7572 122.421 86.2112H120.141V76.9922H127.841V79.0812H122.465V83.0662C123.078 82.6197 123.819 82.3836 124.577 82.3932C126.837 82.3922 128.373 84.0992 128.373 87.1712Z" fill="#231F20"/>
<path d="M133.476 84.6136V85.8916H132.958C132.635 85.9119 132.311 85.8611 132.01 85.7426C131.709 85.6242 131.437 85.441 131.214 85.2061C130.991 84.9713 130.823 84.6903 130.721 84.3832C130.618 84.076 130.585 83.7502 130.622 83.4286V79.6646H129.586V78.4336H130.622V76.6836H131.965V78.4336H133.336V79.6646H131.965V83.4436C131.965 84.2436 132.301 84.6176 133.028 84.6176L133.476 84.6136Z" fill="#231F20"/>
<path d="M139.786 81.3121V85.8031H138.43V81.3541C138.43 80.0381 138.079 79.5341 137.394 79.5341C136.624 79.5341 136.135 80.1501 136.135 81.2411V85.8031H134.777V75.7031H136.135V79.1461C136.306 78.8692 136.544 78.6409 136.829 78.4832C137.113 78.3256 137.433 78.2439 137.758 78.2461C139.045 78.2471 139.786 79.2271 139.786 81.3121Z" fill="#231F20"/>
<path d="M332.409 121.099H311.17V113.672C311.135 111.922 311.598 110.198 312.505 108.7C313.408 107.255 314.702 106.094 316.237 105.352C317.982 104.564 319.875 104.156 321.789 104.156C323.704 104.156 325.597 104.564 327.342 105.352C328.877 106.093 330.172 107.254 331.074 108.7C331.981 110.197 332.444 111.922 332.409 113.672V121.099ZM329.77 118.581V113.823C329.804 112.491 329.457 111.176 328.77 110.034C328.089 108.958 327.115 108.098 325.963 107.555C324.646 106.974 323.223 106.674 321.783 106.674C320.344 106.674 318.921 106.974 317.604 107.555C316.457 108.101 315.49 108.96 314.813 110.034C314.125 111.176 313.778 112.491 313.813 113.823V118.581H329.77Z" fill="#AB402D"/>
<path d="M332.59 94.7152C332.617 96.0474 332.247 97.3576 331.528 98.4792C330.809 99.5721 329.8 100.444 328.615 100.996C327.285 101.613 325.833 101.919 324.368 101.89C322.905 101.918 321.454 101.622 320.12 101.022C318.955 100.502 317.952 99.675 317.22 98.6302C316.523 97.621 316.157 96.4203 316.173 95.1942C316.151 93.9733 316.512 92.7762 317.204 91.7702C317.938 90.742 318.941 89.9361 320.104 89.4412C321.478 88.8531 322.963 88.5657 324.458 88.5982C324.579 88.5982 324.721 88.5982 324.883 88.6112C325.045 88.6242 325.196 88.6312 325.338 88.6482V100.002H323.244V89.9022L323.973 90.8852C323.024 90.8519 322.08 91.0323 321.211 91.4132C320.452 91.7405 319.795 92.2671 319.311 92.9372C318.866 93.6018 318.628 94.3837 318.628 95.1837C318.628 95.9837 318.866 96.7656 319.311 97.4302C319.795 98.1084 320.456 98.6399 321.223 98.9662C322.108 99.3487 323.065 99.5376 324.029 99.5202H324.515C325.505 99.5385 326.487 99.327 327.382 98.9022C328.192 98.5276 328.875 97.9241 329.347 97.1661C329.819 96.4081 330.059 95.5287 330.037 94.6362C330.047 93.8903 329.88 93.1526 329.551 92.4832C329.205 91.8105 328.706 91.2282 328.095 90.7832L329.976 89.4482C330.802 90.0251 331.469 90.8001 331.918 91.7022C332.374 92.6403 332.604 93.6722 332.59 94.7152Z" fill="#AB402D"/>
<path d="M332.591 79.435C332.611 80.7266 332.241 81.9941 331.529 83.072C330.802 84.1536 329.795 85.0177 328.616 85.572C327.279 86.1706 325.831 86.48 324.366 86.48C322.901 86.48 321.453 86.1706 320.116 85.572C318.938 85.02 317.935 84.1552 317.216 83.072C316.513 81.9909 316.148 80.7245 316.169 79.435C316.15 78.2972 316.449 77.1769 317.033 76.2C317.644 75.2231 318.539 74.4556 319.598 74L321.023 75.838C320.308 76.2054 319.706 76.758 319.278 77.438C318.909 78.0494 318.716 78.7502 318.718 79.464C318.707 80.2975 318.951 81.1145 319.418 81.805C319.912 82.5163 320.587 83.0817 321.375 83.442C322.314 83.8636 323.335 84.0687 324.364 84.042C325.396 84.0673 326.421 83.8623 327.364 83.442C328.158 83.0853 328.84 82.5195 329.337 81.805C329.804 81.1146 330.048 80.2976 330.037 79.464C330.039 78.7501 329.845 78.0493 329.476 77.438C329.048 76.7577 328.445 76.2051 327.73 75.838L329.13 74C330.181 74.4666 331.073 75.2316 331.694 76.2C332.297 77.1698 332.609 78.2929 332.591 79.435Z" fill="#AB402D"/>
<path d="M332.407 62.2156H312.382L313.808 61.1327V66.1927H311.168V59.7227H332.407V62.2156Z" fill="#AB402D"/>
<path d="M332.407 52.8253L312.442 45.3483L313.808 44.6933V55.1663L312.321 53.9073H317.601V56.3242H311.168V43.0312H313.232L332.407 50.1562V52.8253Z" fill="#AB402D"/>
<path d="M325.339 41.8482H322.82V35.0762H325.339V41.8482Z" fill="#AB402D"/>
<path d="M332.41 33.036H330.347L322.002 25.862C321.41 25.3233 320.764 24.8465 320.075 24.439C319.591 24.1576 319.071 23.9459 318.528 23.81C318.075 23.7035 317.613 23.6485 317.148 23.646C316.675 23.6202 316.202 23.6919 315.758 23.8565C315.315 24.0211 314.909 24.2752 314.568 24.603C314.234 24.9836 313.98 25.4265 313.818 25.906C313.657 26.3856 313.592 26.8923 313.628 27.397C313.615 28.2769 313.807 29.1477 314.19 29.94C314.596 30.7317 315.196 31.4074 315.934 31.904L314.144 33.615C313.116 32.9493 312.292 32.013 311.762 30.909C311.199 29.7443 310.913 28.4648 310.928 27.171C310.901 26.0621 311.145 24.9634 311.641 23.971C312.099 23.0829 312.812 22.3518 313.689 21.871C314.659 21.3571 315.746 21.1016 316.844 21.129C317.528 21.1285 318.21 21.2043 318.877 21.355C319.622 21.5372 320.337 21.8254 321.001 22.211C321.895 22.7353 322.739 23.3423 323.52 24.024L330.953 30.418L329.77 31.023V20.373H332.409L332.41 33.036Z" fill="#AB402D"/>
<path d="M332.651 11.134C332.664 12.4734 332.214 13.7762 331.377 14.822C330.398 15.9965 329.119 16.884 327.677 17.39C323.853 18.6487 319.727 18.6487 315.904 17.39C314.461 16.8839 313.182 15.9964 312.204 14.822C311.378 13.7723 310.93 12.4757 310.93 11.1405C310.93 9.80517 311.378 8.50862 312.204 7.45897C313.178 6.27966 314.458 5.39121 315.904 4.89096C319.73 3.64833 323.851 3.64833 327.677 4.89096C329.122 5.39107 330.403 6.27954 331.377 7.45897C332.21 8.50189 332.66 9.79921 332.651 11.134ZM329.951 11.134C329.962 10.239 329.637 9.37237 329.041 8.70497C328.295 7.92273 327.352 7.35731 326.311 7.06897C323.348 6.27963 320.231 6.27963 317.269 7.06897C316.227 7.35784 315.284 7.92317 314.538 8.70497C313.942 9.37288 313.618 10.2392 313.628 11.134C313.619 12.0324 313.943 12.9024 314.538 13.576C315.28 14.3651 316.225 14.9354 317.269 15.225C320.231 16.0143 323.348 16.0143 326.311 15.225C327.355 14.9359 328.299 14.3655 329.041 13.576C329.636 12.9027 329.96 12.0325 329.95 11.134H329.951Z" fill="#AB402D"/>
<path d="M148.78 73.8047H147.406V121.32H148.78V73.8047Z" fill="#E29035"/>
<path d="M222.827 50.7441L222.917 50.8441C222.896 50.8441 222.867 50.8441 222.856 50.8281C222.842 50.8043 222.831 50.7783 222.824 50.7511L222.827 50.7441Z" fill="#37AADE"/>
<path d="M199.31 26.9917L199.277 26.9688L199.301 26.9897L199.31 26.9917Z" fill="#FEFEFE"/>
<path d="M206.448 29.4844C205.921 28.9827 205.529 28.3569 205.308 27.6644C205.086 26.9543 204.973 26.2145 204.975 25.4704C204.698 26.2295 204.631 27.0492 204.78 27.8432C204.929 28.6373 205.289 29.3766 205.823 29.9834C206.812 31.2076 207.881 32.3651 209.023 33.4484C211.823 36.3484 212.035 39.5834 210.51 43.0734C209.547 44.9716 208.35 46.7417 206.947 48.3424C205.885 49.6262 204.975 51.0282 204.235 52.5205C204.191 52.6205 204.135 52.7124 203.993 52.6994C204.05 51.7478 204.339 50.8247 204.835 50.0104C205.756 48.1534 207.109 46.5554 208.205 44.8034C209.456 42.8558 210.084 40.573 210.005 38.2594C209.962 36.9324 208.752 35.2204 207.072 35.3994C206.512 35.482 205.984 35.7116 205.542 36.0647C205.1 36.4178 204.759 36.8818 204.555 37.4094C205.126 36.9941 205.75 36.6577 206.411 36.4094C206.781 36.2863 207.18 36.2785 207.555 36.387C207.93 36.4956 208.263 36.7154 208.511 37.0174C208.768 37.3818 208.909 37.8153 208.917 38.2613C208.924 38.7072 208.796 39.145 208.551 39.5174C208.198 40.2419 207.691 40.8809 207.067 41.3904C206.443 41.8999 205.715 42.2677 204.935 42.4683C204.154 42.6689 203.339 42.6975 202.547 42.5521C201.754 42.4067 201.002 42.0909 200.344 41.6264C197.733 39.9852 195.846 37.4104 195.067 34.4264C194.326 32.1578 194.21 29.7313 194.73 27.4022C195.251 25.0731 196.39 22.9274 198.027 21.1904C200.806 18.0694 204.54 18.3754 207.475 20.7734C208.805 21.8594 208.682 23.3234 208.175 24.7614C207.632 26.3104 206.619 27.6924 206.448 29.4844ZM200.157 29.8064L200.138 29.7904L200.164 29.8074C200.45 32.1264 201.216 33.1374 204.455 33.9564C203.773 34.3788 203.263 35.0284 203.014 35.7905C202.765 36.5526 202.793 37.3782 203.094 38.1214C203.399 37.8464 203.294 37.4624 203.394 37.1434C203.613 36.5149 203.974 35.9449 204.448 35.4769C204.921 35.009 205.496 34.6555 206.127 34.4434C207.464 33.9064 207.466 33.8434 206.479 32.8624C205.441 31.8389 204.615 30.6202 204.05 29.2764C203.677 28.2802 203.446 27.2368 203.362 26.1764C202.22 28.7914 203.37 30.9274 205.102 32.9934C204.487 33.0271 203.871 32.9334 203.294 32.7183C202.717 32.5032 202.191 32.1713 201.748 31.7434C201.167 31.1424 200.685 30.4534 200.157 29.8064Z" fill="#19A99F"/>
<path d="M217.866 46.9567C216.983 46.7414 216.213 46.2038 215.707 45.4497C214.836 44.426 214.182 43.2365 213.783 41.953C213.385 40.6695 213.251 39.3185 213.389 37.9817C213.77 36.0409 214.765 34.2739 216.227 32.9407C217.167 32.0059 218.053 31.0183 218.881 29.9827C219.396 29.3704 219.751 28.6393 219.914 27.8555C220.076 27.0716 220.041 26.2596 219.812 25.4927C219.725 27.0105 219.182 28.4667 218.254 29.6707C218.109 28.2155 217.643 26.8104 216.891 25.5567C215.507 22.6657 216.42 20.5437 219.537 19.4107C222.863 18.2017 225.616 19.3827 227.637 22.2227C229.454 24.694 230.398 27.6996 230.32 30.7662C230.241 33.8327 229.146 36.7863 227.205 39.1617C225.964 40.857 224.162 42.0574 222.12 42.5497C219.44 43.1497 216.215 41.0417 215.869 38.4497C215.806 38.1019 215.848 37.7434 215.989 37.4194C216.13 37.0954 216.364 36.8206 216.662 36.6297C216.971 36.4459 217.322 36.342 217.682 36.3276C218.041 36.3131 218.399 36.3884 218.723 36.5467C219.089 36.7092 219.446 36.8942 219.79 37.1007C219.61 36.5982 219.277 36.1649 218.838 35.8618C218.398 35.5587 217.875 35.4013 217.342 35.4117C216.837 35.4263 216.347 35.5854 215.93 35.87C215.513 36.1547 215.187 36.553 214.99 37.0177C214.337 38.6177 214.82 40.1677 215.178 41.7177C215.649 43.6487 216.57 45.4413 217.865 46.9497L217.866 46.9567ZM219.852 33.0357C220.58 31.9735 221.215 30.8507 221.752 29.6797C222.07 28.4983 221.973 27.2437 221.479 26.1247C221.397 28.0361 220.734 29.877 219.579 31.4017C219.077 32.0727 218.536 32.7129 217.958 33.3187C217.482 33.8067 217.64 34.0097 218.195 34.2187C218.602 34.3818 218.999 34.5674 219.386 34.7747C219.877 35.0026 220.313 35.3345 220.663 35.7476C221.013 36.1606 221.269 36.6448 221.414 37.1667C221.454 37.4991 221.585 37.8139 221.793 38.0767C222.445 36.3317 221.733 35.0507 220.375 33.9487C223.386 33.2957 224.475 32.0937 224.642 29.7827C223.496 31.5657 222.194 32.9337 219.852 33.0357Z" fill="#37AADE"/>
<path d="M214.709 31.7662C214.708 32.0786 214.646 32.3878 214.524 32.6756C214.403 32.9634 214.225 33.224 214.001 33.4422C213.778 33.6604 213.513 33.8317 213.222 33.9461C212.932 34.0604 212.621 34.1156 212.309 34.1082C211.994 34.1133 211.681 34.0551 211.389 33.9373C211.097 33.8195 210.832 33.6444 210.609 33.4223C210.385 33.2002 210.209 32.9356 210.09 32.6442C209.97 32.3527 209.911 32.0404 209.914 31.7255C209.918 31.4107 209.984 31.0997 210.11 30.811C210.236 30.5223 210.418 30.2617 210.646 30.0445C210.874 29.8274 211.143 29.6582 211.438 29.5468C211.732 29.4355 212.046 29.3843 212.361 29.3962C212.671 29.3954 212.979 29.4563 213.265 29.5754C213.552 29.6945 213.812 29.8694 214.031 30.0899C214.249 30.3105 214.421 30.5722 214.538 30.86C214.654 31.1478 214.712 31.4558 214.709 31.7662Z" fill="#37AADE"/>
<path d="M200.156 29.8049C200.684 30.4529 201.166 31.1419 201.751 31.7389C202.194 32.1668 202.721 32.4986 203.298 32.7137C203.875 32.9288 204.49 33.0225 205.105 32.9889C203.373 30.9229 202.223 28.7889 203.365 26.1719C203.449 27.2322 203.681 28.2756 204.053 29.2719C204.619 30.6156 205.444 31.8343 206.482 32.8579C207.469 33.8409 207.467 33.9019 206.13 34.4389C205.499 34.6509 204.925 35.0044 204.451 35.4724C203.977 35.9403 203.617 36.5103 203.397 37.1389C203.289 37.4579 203.397 37.8389 203.097 38.1169C202.797 37.3736 202.768 36.548 203.017 35.7859C203.266 35.0238 203.777 34.3742 204.458 33.9519C201.219 33.1329 200.458 32.1219 200.167 29.8029L200.156 29.8049Z" fill="#FEFEFE"/>
<path d="M219.852 33.0351C222.194 32.9351 223.496 31.5651 224.638 29.7771C224.468 32.0881 223.382 33.2901 220.371 33.9431C221.729 35.0431 222.441 36.3262 221.789 38.0712C221.582 37.8084 221.45 37.4935 221.41 37.1611C221.266 36.6393 221.009 36.155 220.659 35.742C220.309 35.329 219.873 34.997 219.382 34.7691C218.996 34.5618 218.598 34.3762 218.191 34.2131C217.636 34.0131 217.478 33.8061 217.954 33.3131C218.532 32.7073 219.074 32.0671 219.575 31.3961C220.731 29.8715 221.393 28.0305 221.475 26.1191C221.97 27.2381 222.066 28.4928 221.748 29.6741C221.213 30.8467 220.579 31.9712 219.852 33.0351Z" fill="#FEFEFE"/>
<mask id="mask0_219_165" style="mask-type:luminance" maskUnits="userSpaceOnUse" x="178" y="0" width="67" height="66">
<path d="M211.762 0C205.235 0 198.855 1.93541 193.428 5.56149C188.001 9.18758 183.771 14.3415 181.274 20.3714C178.776 26.4014 178.123 33.0366 179.396 39.438C180.669 45.8393 183.812 51.7194 188.427 56.3345C193.042 60.9497 198.922 64.0926 205.324 65.3659C211.725 66.6392 218.36 65.9857 224.39 63.488C230.42 60.9903 235.574 56.7606 239.2 51.3338C242.826 45.907 244.762 39.5268 244.762 33C244.762 24.2479 241.285 15.8542 235.096 9.66547C228.908 3.47677 220.514 0 211.762 0ZM211.762 55.921C207.228 55.9212 202.797 54.5771 199.027 52.0586C195.258 49.5401 192.32 45.9604 190.585 41.7722C188.85 37.5839 188.396 32.9753 189.28 28.5289C190.164 24.0826 192.347 19.9984 195.553 16.7928C198.758 13.5871 202.842 11.404 207.289 10.5195C211.735 9.63499 216.344 10.0888 220.532 11.8237C224.72 13.5585 228.3 16.4963 230.819 20.2657C233.337 24.035 234.682 28.4666 234.682 33C234.682 39.0789 232.267 44.9087 227.969 49.2072C223.67 53.5057 217.841 55.9207 211.762 55.921Z" fill="white"/>
</mask>
<g mask="url(#mask0_219_165)">
<path d="M194.544 18.0108C193.111 15.9518 191.688 13.9107 190.274 11.8677C190.176 11.7453 190.104 11.6042 190.063 11.4531C190.022 11.302 190.013 11.144 190.035 10.989C190.058 10.834 190.112 10.6853 190.194 10.5519C190.276 10.4186 190.384 10.3035 190.513 10.2137C192.791 8.08731 195.368 6.30456 198.161 4.92175C198.388 4.80369 198.644 4.75005 198.899 4.76661C199.155 4.78318 199.401 4.86933 199.612 5.01574C205.529 8.51455 210.628 13.2414 214.564 18.8777C214.686 19.029 214.753 19.2167 214.756 19.4108C214.758 19.605 214.695 19.7944 214.578 19.9487C213.658 21.5075 213.247 23.3141 213.402 25.1173C213.557 26.9205 214.27 28.6307 215.442 30.0097C216.269 31.0399 216.655 32.3557 216.515 33.6696C216.376 34.9835 215.721 36.1887 214.696 37.0217C214.563 37.1156 214.409 37.1763 214.248 37.1987C214.087 37.2212 213.922 37.2047 213.769 37.1507C212.5 36.9857 211.229 36.8247 209.969 36.5947C209.442 36.5196 208.939 36.3272 208.496 36.0317C208.054 35.7362 207.683 35.3452 207.412 34.8874C207.141 34.4296 206.975 33.9168 206.929 33.3868C206.882 32.8567 206.955 32.3229 207.142 31.8247C207.417 31.0287 207.836 30.2896 208.377 29.6437C209.282 28.4182 209.861 26.9823 210.059 25.4713C210.256 23.9603 210.066 22.4239 209.506 21.0067C208.946 19.5895 208.034 18.3381 206.857 17.3705C205.68 16.4029 204.276 15.7509 202.777 15.4757C201.506 15.2824 200.209 15.3439 198.962 15.6567C197.715 15.9695 196.542 16.5274 195.513 17.2977C195.181 17.5237 194.867 17.7718 194.544 18.0108Z" fill="#3C4999"/>
<path d="M242.766 36.9918C242.325 40.6503 241.212 44.1958 239.483 47.4498C237.582 51.1174 234.968 54.3681 231.793 57.0109C228.618 59.6537 224.947 61.6351 220.996 62.8388C220.717 62.9278 220.441 63.0258 220.159 63.0998C219.933 63.1831 219.687 63.1928 219.456 63.1276C219.224 63.0624 219.019 62.9256 218.871 62.7368C218.721 62.5481 218.638 62.3158 218.633 62.0752C218.628 61.8346 218.703 61.5991 218.845 61.4048C219.485 60.2954 220.118 59.1824 220.745 58.0658C221.998 55.8288 223.051 53.4948 224.076 51.1478C224.136 50.9211 224.25 50.7122 224.408 50.5392C224.566 50.3661 224.764 50.2339 224.985 50.1538C226.903 49.5552 228.642 48.4881 230.045 47.049C231.448 45.6098 232.47 43.8439 233.02 41.9108C233.836 39.3768 235.029 37.8898 237.62 37.3368C238.805 36.9636 239.952 36.4781 241.045 35.8868C242.059 35.4508 242.789 35.9468 242.766 36.9918Z" fill="#FED879"/>
<path d="M200.485 50.6554C196.837 51.807 193.103 52.669 189.319 53.2334C188.963 53.3102 188.593 53.2777 188.255 53.1401C187.918 53.0026 187.63 52.7663 187.429 52.4624C184.708 49.0424 182.734 45.0894 181.636 40.8589C180.537 36.6284 180.339 32.2145 181.052 27.9024C181.247 26.5874 182.141 26.2224 183.127 27.0834C184.807 28.61 186.573 30.0377 188.418 31.3594C188.918 31.7024 188.867 32.1594 188.853 32.6234C188.756 34.97 189.029 37.3173 189.66 39.5794C191.258 45.0494 194.126 49.3534 200.485 50.6554Z" fill="#EE7B65"/>
<path d="M211.802 1.76178C216.31 1.77884 220.764 2.75335 224.868 4.62079C225.141 4.72143 225.381 4.89418 225.563 5.12063C225.746 5.34709 225.863 5.61878 225.904 5.90678C226.424 9.15499 226.77 12.4286 226.942 15.7138C226.992 16.4058 226.801 16.5238 226.153 16.2448C224.882 15.6216 223.479 15.3162 222.065 15.3549C220.65 15.3935 219.266 15.7751 218.032 16.4668C217.556 16.7328 217.345 16.5758 217.069 16.1918C213.883 11.7515 210.006 7.85156 205.584 4.64077C205.1 4.28877 204.63 3.90878 204.784 3.20778C204.94 2.47878 205.572 2.41478 206.142 2.30778C208.006 1.94086 209.902 1.75798 211.802 1.76178Z" fill="#73C4B9"/>
<path d="M211.145 64.2304C211.036 64.2244 210.926 64.2213 210.816 64.2123C207.696 63.9593 208.151 64.0463 208.016 61.4353C207.827 57.4895 207.376 53.5606 206.667 49.6744C206.597 49.4542 206.595 49.218 206.662 48.9969C206.729 48.7757 206.861 48.5799 207.041 48.4353C208.082 47.5566 208.9 46.4441 209.428 45.1888C209.957 43.9334 210.18 42.5708 210.081 41.2123C210.032 40.4793 210.181 40.3003 210.981 40.4403C213.181 40.8243 213.17 40.7733 213.516 42.8793C213.709 44.5472 214.383 46.1229 215.456 47.4147C216.528 48.7065 217.953 49.6587 219.557 50.1553C220.38 50.4393 220.347 50.7554 220.057 51.3944C218.131 55.5902 215.861 59.6193 213.27 63.4403C212.748 64.1983 212.502 64.2694 211.145 64.2304Z" fill="#73C4B9"/>
<path d="M234.689 32.2379C234.732 27.8533 233.378 23.5688 230.824 20.0049C230.646 19.7718 230.554 19.484 230.565 19.1909C230.609 16.1909 230.47 13.1909 230.148 10.2079C230.091 9.95405 230.125 9.6885 230.244 9.45703C230.362 9.22556 230.558 9.04268 230.797 8.93991C231.417 8.65991 231.844 9.0319 232.263 9.3949C235.885 12.51 238.731 16.4262 240.576 20.8329C241.785 23.6614 242.552 26.6591 242.851 29.7209C242.919 30.0223 242.885 30.3381 242.753 30.6177C242.621 30.8973 242.399 31.1245 242.123 31.2629C239.953 32.475 237.693 33.5181 235.364 34.3829C234.78 34.6029 234.658 34.4239 234.683 33.8829C234.708 33.3419 234.689 32.7859 234.689 32.2379Z" fill="#EE7B65"/>
<path d="M204.301 59.8389C204.411 63.1389 204.16 63.3189 201.753 62.5239C198.845 61.5464 196.1 60.1377 193.611 58.3449C193.125 57.9999 192.763 57.6319 192.895 57.0009C193.027 56.3699 193.535 56.2009 194.11 56.0889C196.716 55.5523 199.292 54.8824 201.83 54.0819C203.309 53.6219 203.743 53.9309 203.886 55.4819C204.038 57.1909 204.207 58.9019 204.301 59.8389Z" fill="#3C4999"/>
<path d="M189.35 27.5349C187.174 25.9283 185.154 24.1203 183.317 22.1349C183.135 21.9263 183.024 21.665 183.001 21.3891C182.977 21.1131 183.043 20.837 183.188 20.6009C183.977 18.7929 184.928 17.0599 186.03 15.4229C186.83 14.2609 187.504 14.2179 188.324 15.3629C189.514 17.0249 190.615 18.7499 191.744 20.4539C191.847 20.5574 191.912 20.692 191.93 20.8368C191.948 20.9816 191.918 21.1283 191.844 21.2539C190.678 23.1988 189.836 25.3201 189.35 27.5349Z" fill="#FED879"/>
</g>
<path d="M370.467 120.627H364.88L353.842 109.248C353.219 108.574 352.524 107.971 351.769 107.448C351.265 107.103 350.71 106.839 350.124 106.666C349.676 106.543 349.214 106.477 348.75 106.471C348.304 106.447 347.859 106.522 347.446 106.691C347.033 106.86 346.663 107.119 346.362 107.448C345.731 108.29 345.427 109.331 345.506 110.38C345.5 111.456 345.764 112.516 346.273 113.464C346.807 114.444 347.604 115.256 348.573 115.809L344.878 122.194C342.863 121.031 341.209 119.332 340.103 117.285C338.846 114.92 338.224 112.269 338.299 109.591C338.255 107.476 338.654 105.375 339.471 103.424C340.172 101.757 341.327 100.319 342.805 99.2761C344.305 98.2587 346.085 97.7344 347.897 97.7761C348.923 97.7766 349.945 97.908 350.938 98.1671C352.079 98.4903 353.16 98.9969 354.138 99.6671C355.51 100.617 356.773 101.717 357.901 102.946L366.551 111.98L363.398 113.413V96.9531H370.471L370.467 120.627Z" fill="#AB402D"/>
<path d="M371.102 78.8477C371.146 81.2967 370.472 83.7052 369.164 85.7757C367.79 87.8586 365.852 89.5078 363.577 90.5307C357.886 92.848 351.515 92.848 345.825 90.5307C343.549 89.5072 341.612 87.8582 340.238 85.7757C338.971 83.6951 338.301 81.3061 338.301 78.8702C338.301 76.4343 338.971 74.0453 340.238 71.9647C341.611 69.8817 343.549 68.2322 345.825 67.2087C351.515 64.8914 357.886 64.8914 363.577 67.2087C365.853 68.2317 367.791 69.8813 369.164 71.9647C370.468 74.0205 371.142 76.4133 371.102 78.8477ZM363.802 78.8477C363.811 77.9472 363.491 77.0743 362.902 76.3937C362.111 75.5714 361.103 74.9914 359.995 74.7217C356.505 73.911 352.875 73.911 349.385 74.7217C348.285 74.9953 347.286 75.5747 346.502 76.3927C345.921 77.0787 345.603 77.9482 345.603 78.8467C345.603 79.7452 345.921 80.6147 346.502 81.3007C347.287 82.1222 348.286 82.7087 349.386 82.9947C352.873 83.8347 356.509 83.8347 359.996 82.9947C361.104 82.7126 362.111 82.1258 362.903 81.3007C363.492 80.6205 363.812 79.7478 363.802 78.8477Z" fill="#AB402D"/>
<path d="M370.467 60.8224H364.88L353.842 49.4434C353.219 48.7692 352.524 48.1656 351.769 47.6433C351.265 47.2977 350.71 47.0338 350.124 46.8614C349.676 46.7379 349.214 46.6724 348.75 46.6664C348.304 46.6419 347.859 46.7169 347.446 46.8859C347.033 47.0549 346.663 47.3136 346.362 47.6433C345.731 48.4845 345.427 49.5259 345.506 50.5743C345.5 51.6503 345.764 52.7106 346.273 53.6584C346.807 54.6383 347.603 55.4503 348.573 56.0034L344.878 62.3883C342.863 61.2257 341.21 59.5267 340.103 57.4803C338.847 55.1168 338.225 52.4679 338.299 49.7924C338.255 47.6771 338.654 45.576 339.471 43.6244C340.172 41.9573 341.327 40.5205 342.805 39.4774C344.305 38.46 346.085 37.9357 347.897 37.9774C348.923 37.9783 349.945 38.1097 350.938 38.3683C352.079 38.6915 353.16 39.1981 354.138 39.8683C355.51 40.8184 356.772 41.9185 357.901 43.1483L366.551 52.1813L363.398 53.6154V37.1523H370.471L370.467 60.8224Z" fill="#AB402D"/>
<path d="M371.102 18.3923C371.164 20.9708 370.559 23.5218 369.345 25.7973C368.142 27.9264 366.318 29.6382 364.118 30.7043C361.442 31.9556 358.51 32.5585 355.558 32.4643C352.318 32.5608 349.106 31.852 346.208 30.4013C343.735 29.1181 341.692 27.1404 340.329 24.7113C338.937 22.1339 338.239 19.2396 338.301 16.3113C338.295 14.6492 338.499 12.9932 338.909 11.3823C339.249 9.95969 339.82 8.60241 340.599 7.36429L346.999 10.4913C346.396 11.3022 345.959 12.2247 345.715 13.2053C345.489 14.1516 345.375 15.1213 345.377 16.0943C345.329 17.1342 345.501 18.1726 345.881 19.1416C346.262 20.1106 346.842 20.9886 347.585 21.7183C349.057 23.1236 351.204 23.826 354.028 23.8253C354.538 23.8253 355.071 23.818 355.628 23.8033C356.194 23.7882 356.758 23.7375 357.318 23.6513L355.471 25.8233C354.422 25.2916 353.476 24.5782 352.677 23.7163C351.908 22.8605 351.326 21.8552 350.965 20.7633C350.559 19.523 350.361 18.2242 350.379 16.9193C350.357 15.0995 350.782 13.3022 351.618 11.6853C352.42 10.1355 353.616 8.8247 355.087 7.88529C356.659 6.90606 358.484 6.40797 360.336 6.45229C362.354 6.40235 364.341 6.9624 366.036 8.05929C367.644 9.13262 368.936 10.6175 369.776 12.3593C370.679 14.2404 371.133 16.3057 371.102 18.3923ZM364.749 18.9133C364.763 18.1663 364.591 17.4275 364.249 16.7633C363.931 16.1543 363.445 15.6494 362.849 15.3083C362.201 14.9493 361.47 14.7695 360.73 14.7873C360.195 14.7635 359.662 14.8539 359.165 15.0523C358.668 15.2508 358.219 15.5528 357.848 15.9383C357.105 16.7633 356.716 17.8473 356.766 18.9563C356.749 19.7177 356.921 20.4714 357.266 21.1503C357.587 21.7622 358.072 22.2731 358.666 22.6263C359.308 22.9995 360.041 23.1875 360.784 23.1693C361.502 23.1855 362.21 23.0053 362.834 22.6483C363.428 22.2945 363.912 21.7833 364.234 21.1713C364.592 20.4731 364.769 19.6959 364.748 18.9113L364.749 18.9133Z" fill="#AB402D"/>
<path d="M468.366 81.3223C467.676 81.6923 466.966 82.0423 466.246 82.3623C466.416 82.2623 466.566 82.1823 466.676 82.1223C467.222 81.8196 467.786 81.5523 468.366 81.3223Z" fill="#61827C"/>
<path d="M52.1215 106.222H50.0585L49.6995 107.791H48.5195L50.4825 99.9844H51.6995L53.6625 107.791H52.4895L52.1215 106.222ZM51.8875 105.173L51.3975 103.073C51.2855 102.56 51.1625 101.813 51.1075 101.4H51.0735C51.0175 101.813 50.9055 102.56 50.7835 103.073L50.3035 105.173H51.8875Z" fill="#231F20"/>
<path d="M58.4997 104.102V107.791H57.4197V104.154C57.4197 103.195 57.1627 102.794 56.5937 102.794C55.9807 102.794 55.5937 103.285 55.5937 104.154V107.791H54.5117V101.913H55.2817L55.3937 102.571C55.5416 102.317 55.7557 102.109 56.0131 101.968C56.2705 101.827 56.5615 101.759 56.8547 101.771C57.8647 101.771 58.4997 102.491 58.4997 104.102Z" fill="#231F20"/>
<path d="M63.8445 104.102V107.791H62.7635V104.154C62.7635 103.195 62.5065 102.794 61.9375 102.794C61.3235 102.794 60.9375 103.285 60.9375 104.154V107.791H59.8555V101.913H60.6255L60.7375 102.571C60.885 102.317 61.0989 102.109 61.3562 101.968C61.6135 101.827 61.9044 101.759 62.1975 101.771C63.2085 101.771 63.8445 102.491 63.8445 104.102Z" fill="#231F20"/>
<path d="M69.1297 101.916V107.791H68.3597L68.2487 107.133C68.1009 107.387 67.8867 107.595 67.6293 107.736C67.3719 107.877 67.081 107.945 66.7877 107.933C65.7727 107.933 65.1367 107.208 65.1367 105.602V101.91H66.2187V105.546C66.2187 106.505 66.4757 106.907 67.0447 106.907C67.6577 106.907 68.0447 106.416 68.0447 105.546V101.91L69.1297 101.916Z" fill="#231F20"/>
<path d="M74.3063 103.891V107.791H73.4253L73.3473 107.244C73.2123 107.466 73.0196 107.648 72.7897 107.77C72.5598 107.892 72.3012 107.949 72.0413 107.936C71.7992 107.951 71.5567 107.914 71.3301 107.827C71.1034 107.741 70.8977 107.608 70.7268 107.435C70.5558 107.263 70.4234 107.057 70.3385 106.83C70.2536 106.603 70.2181 106.36 70.2343 106.118C70.2343 104.918 71.0713 104.3 72.3653 104.3H73.2243V103.891C73.2243 103.199 72.9673 102.809 72.3763 102.809C72.2659 102.799 72.1548 102.812 72.0495 102.847C71.9442 102.881 71.8469 102.936 71.7636 103.009C71.6802 103.082 71.6124 103.171 71.5642 103.271C71.5161 103.371 71.4885 103.479 71.4833 103.59H70.4003C70.4002 103.335 70.4534 103.084 70.5563 102.851C70.6593 102.618 70.8097 102.41 70.9981 102.238C71.1864 102.067 71.4084 101.937 71.6499 101.857C71.8913 101.777 72.147 101.748 72.4003 101.772C73.6593 101.771 74.3063 102.54 74.3063 103.891ZM73.2243 105.24H72.3653C71.7073 105.24 71.3273 105.54 71.3273 106.122C71.3215 106.243 71.3424 106.364 71.3887 106.477C71.4349 106.589 71.5053 106.69 71.5948 106.771C71.6843 106.853 71.7908 106.915 71.9067 106.951C72.0226 106.987 72.145 106.997 72.2653 106.981C72.3919 106.991 72.5192 106.974 72.6386 106.931C72.758 106.887 72.8668 106.819 72.9577 106.73C73.0485 106.642 73.1193 106.534 73.1653 106.416C73.2113 106.298 73.2314 106.171 73.2243 106.044V105.24Z" fill="#231F20"/>
<path d="M75.6914 99.7207H76.7734V107.793H75.6914V99.7207Z" fill="#231F20"/>
<path d="M80.5745 105.491V102.279C80.5315 101.965 80.5587 101.644 80.654 101.341C80.7492 101.039 80.9103 100.76 81.1255 100.527C81.3408 100.294 81.605 100.111 81.8992 99.9912C82.1934 99.8718 82.5104 99.8189 82.8275 99.8362C83.1442 99.8166 83.4615 99.8658 83.7573 99.9806C84.0532 100.095 84.3207 100.273 84.5413 100.501C84.7619 100.729 84.9305 101.003 85.0353 101.302C85.1401 101.602 85.1787 101.92 85.1485 102.236H84.0325C83.9655 101.321 83.5645 100.909 82.8175 100.909C82.1585 100.909 81.7245 101.344 81.7245 102.281V105.491C81.7245 106.417 82.1585 106.853 82.8395 106.853C83.5975 106.853 83.9995 106.429 84.0775 105.536H85.1925C85.2185 105.853 85.1758 106.172 85.0673 106.472C84.9587 106.771 84.7869 107.043 84.5635 107.269C84.3401 107.496 84.0704 107.672 83.7729 107.785C83.4753 107.897 83.1569 107.945 82.8395 107.923C82.5227 107.941 82.2058 107.89 81.9113 107.771C81.6168 107.653 81.352 107.471 81.1358 107.239C80.9195 107.007 80.7571 106.73 80.6601 106.428C80.563 106.126 80.5338 105.806 80.5745 105.491Z" fill="#231F20"/>
<path d="M86.1266 105.698V104.003C86.1058 103.719 86.144 103.433 86.2386 103.164C86.3332 102.895 86.4822 102.648 86.6764 102.439C86.8706 102.231 87.1058 102.064 87.3673 101.95C87.6287 101.836 87.9109 101.777 88.1961 101.777C88.4813 101.777 88.7635 101.836 89.0249 101.95C89.2864 102.064 89.5216 102.231 89.7158 102.439C89.91 102.648 90.059 102.895 90.1536 103.164C90.2482 103.433 90.2864 103.719 90.2656 104.003V105.698C90.2864 105.983 90.2482 106.268 90.1536 106.538C90.059 106.807 89.91 107.053 89.7158 107.262C89.5216 107.471 89.2864 107.638 89.0249 107.752C88.7635 107.865 88.4813 107.924 88.1961 107.924C87.9109 107.924 87.6287 107.865 87.3673 107.752C87.1058 107.638 86.8706 107.471 86.6764 107.262C86.4822 107.053 86.3332 106.807 86.2386 106.538C86.144 106.268 86.1058 105.983 86.1266 105.698ZM89.1726 105.698V104.003C89.1726 103.177 88.8046 102.821 88.1906 102.821C87.5766 102.821 87.2206 103.177 87.2206 104.003V105.698C87.2206 106.524 87.5886 106.88 88.1906 106.88C88.7926 106.88 89.1726 106.524 89.1726 105.698Z" fill="#231F20"/>
<path d="M95.5281 104.102V107.791H94.4471V104.154C94.4471 103.195 94.19 102.794 93.621 102.794C93.008 102.794 92.621 103.285 92.621 104.154V107.791H91.5391V101.913H92.31L92.4211 102.571C92.5689 102.317 92.783 102.109 93.0405 101.968C93.2979 101.827 93.5888 101.759 93.8821 101.771C94.8931 101.771 95.5281 102.491 95.5281 104.102Z" fill="#231F20"/>
<path d="M98.2845 101.591V101.915H99.4225V102.897H98.2845V107.797H97.2135V102.897H96.3555V101.915H97.2135V101.591C97.1786 101.321 97.2052 101.047 97.2914 100.788C97.3775 100.53 97.5208 100.294 97.7108 100.099C97.9007 99.9042 98.1322 99.7545 98.3881 99.6615C98.644 99.5685 98.9176 99.5345 99.1885 99.562H99.5335V100.543H99.1885C98.5745 100.544 98.2845 100.857 98.2845 101.591Z" fill="#231F20"/>
<path d="M104.388 105.953C104.388 106.227 104.332 106.497 104.223 106.748C104.113 106.999 103.952 107.224 103.751 107.408C103.549 107.593 103.311 107.734 103.052 107.822C102.793 107.909 102.518 107.942 102.246 107.917C101.961 107.929 101.678 107.878 101.416 107.768C101.154 107.658 100.919 107.492 100.728 107.281C100.538 107.07 100.395 106.82 100.312 106.548C100.229 106.276 100.206 105.99 100.246 105.708V103.957C100.207 103.676 100.232 103.391 100.316 103.12C100.401 102.85 100.545 102.601 100.736 102.393C100.928 102.184 101.163 102.02 101.426 101.913C101.688 101.805 101.971 101.757 102.254 101.771C102.539 101.754 102.825 101.8 103.091 101.905C103.357 102.011 103.597 102.174 103.793 102.383C103.989 102.591 104.136 102.841 104.225 103.113C104.314 103.385 104.342 103.673 104.307 103.957V105.262H101.328V105.708C101.328 106.508 101.674 106.879 102.266 106.879C102.924 106.879 103.202 106.589 103.303 105.953H104.388ZM101.331 103.945V104.445H103.238V103.945C103.238 103.145 102.882 102.786 102.269 102.786C101.677 102.791 101.331 103.143 101.331 103.945Z" fill="#231F20"/>
<path d="M108.568 101.872V102.943C108.339 102.848 108.093 102.803 107.844 102.809C107.108 102.809 106.645 103.289 106.645 104.17V107.792H105.562V101.914H106.332L106.454 102.594C106.683 102.261 107.012 102.011 107.394 101.88C107.776 101.75 108.189 101.746 108.573 101.869L108.568 101.872Z" fill="#231F20"/>
<path d="M113.419 105.953C113.42 106.227 113.364 106.497 113.254 106.748C113.144 106.999 112.983 107.224 112.782 107.408C112.58 107.593 112.342 107.734 112.083 107.822C111.824 107.909 111.549 107.942 111.277 107.917C110.993 107.929 110.71 107.878 110.447 107.768C110.185 107.658 109.95 107.492 109.76 107.281C109.569 107.07 109.427 106.82 109.343 106.548C109.26 106.276 109.237 105.99 109.277 105.708V103.957C109.239 103.676 109.263 103.391 109.348 103.12C109.433 102.85 109.576 102.601 109.768 102.393C109.959 102.184 110.195 102.02 110.457 101.913C110.719 101.805 111.002 101.757 111.285 101.771C111.57 101.754 111.857 101.8 112.123 101.905C112.389 102.011 112.628 102.174 112.824 102.383C113.02 102.591 113.168 102.841 113.256 103.113C113.345 103.385 113.373 103.673 113.338 103.957V105.262H110.359V105.708C110.359 106.508 110.705 106.879 111.297 106.879C111.955 106.879 112.233 106.589 112.334 105.953H113.419ZM110.362 103.945V104.445H112.27V103.945C112.27 103.145 111.913 102.786 111.3 102.786C110.708 102.791 110.362 103.143 110.362 103.945Z" fill="#231F20"/>
<path d="M118.584 104.102V107.791H117.502V104.154C117.502 103.195 117.245 102.794 116.676 102.794C116.063 102.794 115.676 103.285 115.676 104.154V107.791H114.594V101.913H115.364L115.476 102.571C115.624 102.317 115.838 102.109 116.095 101.968C116.353 101.827 116.644 101.759 116.937 101.771C117.948 101.771 118.584 102.491 118.584 104.102Z" fill="#231F20"/>
<path d="M119.802 105.764V103.912C119.767 103.636 119.792 103.355 119.877 103.089C119.962 102.824 120.104 102.58 120.294 102.376C120.483 102.172 120.715 102.012 120.974 101.907C121.232 101.802 121.51 101.756 121.788 101.771C122.069 101.754 122.351 101.799 122.613 101.902C122.875 102.006 123.111 102.165 123.305 102.368C123.499 102.572 123.647 102.816 123.738 103.082C123.828 103.349 123.859 103.632 123.829 103.912H122.736C122.714 103.165 122.39 102.812 121.799 102.812C121.23 102.812 120.899 103.169 120.899 103.912V105.764C120.899 106.511 121.233 106.879 121.799 106.879C122.399 106.879 122.736 106.511 122.77 105.764H123.852C123.88 106.046 123.847 106.331 123.754 106.598C123.661 106.866 123.512 107.111 123.316 107.315C123.12 107.52 122.882 107.679 122.618 107.783C122.354 107.887 122.071 107.933 121.788 107.917C121.509 107.932 121.23 107.885 120.97 107.78C120.711 107.675 120.478 107.514 120.289 107.308C120.099 107.102 119.957 106.857 119.873 106.59C119.789 106.323 119.765 106.041 119.802 105.764Z" fill="#231F20"/>
<path d="M128.923 105.953C128.924 106.227 128.867 106.497 128.758 106.748C128.648 106.999 128.487 107.224 128.286 107.408C128.084 107.593 127.846 107.734 127.587 107.822C127.328 107.909 127.053 107.942 126.781 107.917C126.497 107.929 126.213 107.878 125.951 107.768C125.689 107.658 125.454 107.492 125.264 107.281C125.073 107.07 124.931 106.82 124.847 106.548C124.764 106.276 124.741 105.99 124.781 105.708V103.957C124.743 103.676 124.767 103.391 124.852 103.12C124.936 102.85 125.08 102.601 125.272 102.393C125.463 102.184 125.699 102.02 125.961 101.913C126.223 101.805 126.506 101.757 126.789 101.771C127.074 101.754 127.36 101.8 127.626 101.905C127.892 102.011 128.132 102.174 128.328 102.383C128.524 102.591 128.671 102.841 128.76 103.113C128.849 103.385 128.877 103.673 128.842 103.957V105.262H125.863V105.708C125.863 106.508 126.209 106.879 126.801 106.879C127.459 106.879 127.737 106.589 127.838 105.953H128.923ZM125.866 103.945V104.445H127.774V103.945C127.774 103.145 127.417 102.786 126.804 102.786C126.212 102.791 125.866 103.143 125.866 103.945Z" fill="#231F20"/>
<path d="M132.466 105.698V104.003C132.446 103.719 132.484 103.433 132.578 103.164C132.673 102.895 132.822 102.648 133.016 102.439C133.21 102.231 133.446 102.064 133.707 101.95C133.969 101.836 134.251 101.777 134.536 101.777C134.821 101.777 135.103 101.836 135.365 101.95C135.626 102.064 135.861 102.231 136.056 102.439C136.25 102.648 136.399 102.895 136.493 103.164C136.588 103.433 136.626 103.719 136.605 104.003V105.698C136.626 105.983 136.588 106.268 136.493 106.538C136.399 106.807 136.25 107.053 136.056 107.262C135.861 107.471 135.626 107.638 135.365 107.752C135.103 107.865 134.821 107.924 134.536 107.924C134.251 107.924 133.969 107.865 133.707 107.752C133.446 107.638 133.21 107.471 133.016 107.262C132.822 107.053 132.673 106.807 132.578 106.538C132.484 106.268 132.446 105.983 132.466 105.698ZM135.512 105.698V104.003C135.512 103.177 135.144 102.821 134.529 102.821C133.914 102.821 133.56 103.177 133.56 104.003V105.698C133.56 106.524 133.928 106.88 134.529 106.88C135.13 106.88 135.512 106.524 135.512 105.698Z" fill="#231F20"/>
<path d="M139.228 101.591V101.915H140.365V102.897H139.228V107.797H138.156V102.897H137.301V101.915H138.159V101.591C138.124 101.321 138.151 101.047 138.237 100.788C138.323 100.53 138.466 100.294 138.656 100.099C138.846 99.9042 139.078 99.7545 139.333 99.6615C139.589 99.5685 139.863 99.5345 140.134 99.562H140.48V100.543H140.134C139.518 100.544 139.228 100.857 139.228 101.591Z" fill="#231F20"/>
<path d="M4.40001 113.518H2.772V120.255H1.62201V113.518H0V112.447H4.40001V113.518Z" fill="#231F20"/>
<path d="M8.96265 116.675V120.255H7.88065V116.708C7.88065 115.659 7.60166 115.258 7.05466 115.258C6.44166 115.258 6.05466 115.749 6.05466 116.618V120.255H4.97266V112.201H6.05466V114.945C6.1912 114.725 6.3819 114.544 6.60849 114.42C6.83508 114.295 7.08995 114.23 7.34865 114.232C8.37065 114.232 8.96265 115.013 8.96265 116.675Z" fill="#231F20"/>
<path d="M14.3133 118.414C14.3143 118.688 14.2581 118.958 14.1484 119.209C14.0387 119.46 13.8779 119.684 13.6763 119.869C13.4747 120.054 13.2367 120.195 12.9775 120.283C12.7183 120.37 12.4438 120.403 12.1713 120.378C11.8873 120.39 11.6041 120.339 11.342 120.229C11.0798 120.119 10.845 119.952 10.6542 119.742C10.4634 119.531 10.3213 119.281 10.2378 119.009C10.1544 118.737 10.1317 118.451 10.1713 118.169V116.418C10.1332 116.137 10.1574 115.851 10.2423 115.581C10.3271 115.311 10.4705 115.062 10.6622 114.854C10.8539 114.645 11.0892 114.481 11.3514 114.374C11.6136 114.266 11.8963 114.218 12.1793 114.232C12.465 114.215 12.7508 114.261 13.0167 114.367C13.2826 114.472 13.522 114.635 13.7178 114.844C13.9137 115.053 14.0612 115.302 14.1499 115.574C14.2387 115.846 14.2665 116.134 14.2313 116.418V117.723H11.2533V118.169C11.2533 118.969 11.5993 119.34 12.1903 119.34C12.8493 119.34 13.1273 119.05 13.2283 118.414H14.3133ZM11.2563 116.406V116.906H13.1633V116.406C13.1633 115.606 12.8073 115.247 12.1933 115.247C11.5993 115.247 11.2563 115.604 11.2563 116.406Z" fill="#231F20"/>
<path d="M19.2549 112.447V120.255H18.1289V112.447H19.2549Z" fill="#231F20"/>
<path d="M24.7752 116.564V120.256H23.6932V116.619C23.6932 115.66 23.4372 115.259 22.8672 115.259C22.2542 115.259 21.8672 115.75 21.8672 116.619V120.256H20.7852V114.378H21.5562L21.6672 115.036C21.815 114.782 22.0291 114.574 22.2866 114.433C22.544 114.292 22.8349 114.224 23.1282 114.236C24.1392 114.233 24.7752 114.958 24.7752 116.564Z" fill="#231F20"/>
<path d="M30.0422 112.182V120.257H29.2612L29.1832 119.71C29.0267 119.915 28.8263 120.082 28.5967 120.2C28.3671 120.318 28.1141 120.383 27.8562 120.391C26.7562 120.391 25.9922 119.543 25.9922 118.105V116.487C25.9922 115.071 26.7182 114.234 27.8562 114.234C28.068 114.234 28.2775 114.277 28.4727 114.359C28.6679 114.441 28.8448 114.562 28.9932 114.713V112.182H30.0422ZM28.9932 116.487C28.9932 115.729 28.6252 115.26 28.0342 115.26C27.4092 115.26 27.0862 115.639 27.0862 116.487V118.105C27.0862 118.974 27.4432 119.364 28.0342 119.364C28.5922 119.364 28.9932 118.964 28.9932 118.115V116.487Z" fill="#231F20"/>
<path d="M31.3016 112.717C31.2971 112.626 31.3116 112.535 31.3441 112.449C31.3766 112.364 31.4264 112.287 31.4904 112.222C31.5544 112.157 31.6312 112.106 31.7159 112.072C31.8006 112.038 31.8914 112.023 31.9826 112.026C32.1645 112.026 32.339 112.098 32.4677 112.227C32.5963 112.355 32.6686 112.53 32.6686 112.712C32.6686 112.894 32.5963 113.068 32.4677 113.197C32.339 113.325 32.1645 113.398 31.9826 113.398C31.8922 113.401 31.8021 113.386 31.7179 113.353C31.6337 113.32 31.5572 113.27 31.4932 113.206C31.4293 113.142 31.3792 113.066 31.3463 112.981C31.3133 112.897 31.2981 112.807 31.3016 112.717ZM31.4456 114.379H32.5276V120.257H31.4456V114.379Z" fill="#231F20"/>
<path d="M37.6998 116.352V120.252H36.8188L36.7408 119.705C36.606 119.927 36.4135 120.109 36.1837 120.231C35.954 120.353 35.6956 120.41 35.4358 120.397C35.1937 120.412 34.9513 120.375 34.7246 120.288C34.498 120.202 34.2923 120.069 34.1213 119.897C33.9503 119.725 33.818 119.518 33.7331 119.291C33.6481 119.064 33.6126 118.821 33.6288 118.579C33.6288 117.379 34.4658 116.761 35.7598 116.761H36.6178V116.348C36.6178 115.656 36.3608 115.266 35.7708 115.266C35.6605 115.256 35.5493 115.269 35.444 115.304C35.3387 115.338 35.2415 115.394 35.1581 115.466C35.0747 115.539 35.0069 115.628 34.9587 115.728C34.9106 115.828 34.8831 115.936 34.8778 116.047H33.7998C33.7998 115.793 33.8529 115.541 33.9559 115.308C34.0588 115.075 34.2093 114.867 34.3976 114.696C34.5859 114.524 34.8079 114.394 35.0494 114.314C35.2909 114.234 35.5465 114.205 35.7998 114.229C37.0548 114.233 37.6998 115.002 37.6998 116.352ZM36.6178 117.701H35.7598C35.1018 117.701 34.7218 118.001 34.7218 118.583C34.7159 118.704 34.7367 118.825 34.7828 118.938C34.8289 119.05 34.8992 119.151 34.9887 119.233C35.0781 119.315 35.1845 119.376 35.3004 119.412C35.4162 119.448 35.5386 119.458 35.6588 119.442C35.7854 119.452 35.9127 119.435 36.0321 119.392C36.1516 119.348 36.2604 119.28 36.3512 119.191C36.442 119.103 36.5128 118.995 36.5588 118.877C36.6048 118.759 36.6249 118.632 36.6178 118.505V117.701Z" fill="#231F20"/>
<path d="M43.1004 116.564V120.256H42.0184V116.619C42.0184 115.66 41.7614 115.259 41.1914 115.259C40.5784 115.259 40.1914 115.75 40.1914 116.619V120.256H39.1094V114.378H39.8794L39.9904 115.036C40.1382 114.782 40.3524 114.574 40.6098 114.433C40.8672 114.292 41.1581 114.224 41.4514 114.236C42.4634 114.233 43.1004 114.958 43.1004 116.564Z" fill="#231F20"/>
<path d="M46.6016 118.114H47.7496C47.7294 118.271 47.7445 118.43 47.7937 118.58C47.843 118.73 47.9251 118.868 48.0341 118.982C48.1432 119.096 48.2764 119.185 48.424 119.242C48.5717 119.298 48.73 119.321 48.8876 119.308C49.0344 119.326 49.1833 119.31 49.3235 119.264C49.4638 119.217 49.5919 119.139 49.6986 119.037C49.8053 118.935 49.8881 118.81 49.9408 118.672C49.9935 118.534 50.015 118.385 50.0036 118.238C50.0036 116.687 46.7346 116.598 46.7346 114.278C46.7319 114.003 46.7868 113.731 46.8958 113.479C47.0047 113.227 47.1653 113.001 47.3671 112.815C47.569 112.629 47.8076 112.487 48.0676 112.399C48.3276 112.311 48.6031 112.278 48.8766 112.303C49.1678 112.285 49.4597 112.329 49.7325 112.433C50.0054 112.536 50.253 112.697 50.4588 112.904C50.6647 113.111 50.824 113.359 50.9263 113.632C51.0285 113.906 51.0712 114.198 51.0516 114.489H49.9016C49.8796 113.742 49.4886 113.389 48.8866 113.389C48.7586 113.373 48.6286 113.384 48.5056 113.423C48.3826 113.462 48.2696 113.528 48.1745 113.615C48.0793 113.702 48.0042 113.809 47.9545 113.928C47.9048 114.047 47.8816 114.175 47.8866 114.304C47.8866 115.832 51.1666 115.832 51.1666 118.252C51.1314 118.845 50.8668 119.4 50.4288 119.801C49.9909 120.202 49.414 120.416 48.8205 120.399C48.2271 120.382 47.6638 120.134 47.2501 119.708C46.8364 119.282 46.6048 118.712 46.6046 118.118L46.6016 118.114Z" fill="#231F20"/>
<path d="M52.0758 118.159V116.464C52.0551 116.18 52.0932 115.894 52.1878 115.625C52.2824 115.356 52.4314 115.109 52.6256 114.9C52.8198 114.692 53.055 114.525 53.3165 114.411C53.5779 114.297 53.8601 114.238 54.1453 114.238C54.4305 114.238 54.7127 114.297 54.9741 114.411C55.2356 114.525 55.4708 114.692 55.665 114.9C55.8592 115.109 56.0083 115.356 56.1029 115.625C56.1975 115.894 56.2356 116.18 56.2148 116.464V118.159C56.2356 118.444 56.1975 118.729 56.1029 118.998C56.0083 119.268 55.8592 119.514 55.665 119.723C55.4708 119.932 55.2356 120.099 54.9741 120.213C54.7127 120.326 54.4305 120.385 54.1453 120.385C53.8601 120.385 53.5779 120.326 53.3165 120.213C53.055 120.099 52.8198 119.932 52.6256 119.723C52.4314 119.514 52.2824 119.268 52.1878 118.998C52.0932 118.729 52.0551 118.444 52.0758 118.159ZM55.1218 118.159V116.464C55.1218 115.638 54.7538 115.281 54.1398 115.281C53.5258 115.281 53.1698 115.638 53.1698 116.464V118.159C53.1698 118.985 53.5378 119.341 54.1398 119.341C54.7418 119.341 55.1218 118.985 55.1218 118.159Z" fill="#231F20"/>
<path d="M57.3532 118.225V116.373C57.3175 116.097 57.343 115.816 57.4279 115.55C57.5128 115.285 57.655 115.041 57.8445 114.837C58.0341 114.633 58.2662 114.473 58.5245 114.368C58.7828 114.263 59.061 114.217 59.3392 114.232C59.6203 114.215 59.9015 114.26 60.1635 114.363C60.4254 114.467 60.6617 114.626 60.856 114.829C61.0502 115.033 61.1978 115.277 61.2883 115.543C61.3788 115.81 61.4102 116.093 61.3802 116.373H60.2862C60.2652 115.626 59.9412 115.273 59.3502 115.273C58.7802 115.273 58.4502 115.63 58.4502 116.373V118.225C58.4502 118.972 58.7842 119.34 59.3502 119.34C59.9502 119.34 60.2862 118.972 60.3202 118.225H61.4012C61.4289 118.507 61.3953 118.791 61.3027 119.059C61.2101 119.327 61.0607 119.571 60.8647 119.776C60.6688 119.98 60.4309 120.14 60.1674 120.244C59.9039 120.348 59.621 120.394 59.3382 120.378C59.0589 120.393 58.7797 120.346 58.5205 120.241C58.2614 120.135 58.0287 119.974 57.839 119.769C57.6494 119.563 57.5076 119.318 57.4236 119.051C57.3396 118.784 57.3156 118.502 57.3532 118.225Z" fill="#231F20"/>
<path d="M62.2703 112.717C62.2659 112.626 62.2803 112.535 62.3127 112.45C62.3452 112.365 62.3949 112.287 62.4588 112.222C62.5227 112.157 62.5994 112.106 62.684 112.072C62.7686 112.039 62.8593 112.023 62.9503 112.026C63.1323 112.026 63.3068 112.098 63.4354 112.227C63.5641 112.355 63.6363 112.53 63.6363 112.712C63.6363 112.894 63.5641 113.068 63.4354 113.197C63.3068 113.325 63.1323 113.398 62.9503 113.398C62.86 113.401 62.77 113.386 62.6859 113.353C62.6018 113.32 62.5255 113.27 62.4616 113.206C62.3978 113.142 62.3478 113.065 62.3149 112.981C62.282 112.897 62.2668 112.807 62.2703 112.717ZM62.4143 114.379H63.4993V120.257H62.4173L62.4143 114.379Z" fill="#231F20"/>
<path d="M68.9061 118.414C68.9072 118.688 68.8511 118.958 68.7416 119.209C68.632 119.46 68.4713 119.684 68.2697 119.869C68.0682 120.054 67.8302 120.195 67.5711 120.283C67.312 120.37 67.0375 120.403 66.7651 120.378C66.481 120.39 66.1979 120.339 65.9357 120.229C65.6736 120.119 65.4388 119.952 65.248 119.742C65.0572 119.531 64.915 119.281 64.8315 119.009C64.7481 118.737 64.7254 118.451 64.7651 118.169V116.418C64.727 116.137 64.7512 115.852 64.836 115.581C64.9207 115.311 65.064 115.063 65.2556 114.854C65.4472 114.645 65.6824 114.482 65.9445 114.374C66.2066 114.267 66.4891 114.218 66.7721 114.232C67.0578 114.215 67.3438 114.261 67.6098 114.366C67.8758 114.472 68.1153 114.635 68.3113 114.844C68.5072 115.052 68.6548 115.301 68.7436 115.574C68.8324 115.846 68.8602 116.134 68.8251 116.418V117.723H65.8471V118.169C65.8471 118.969 66.1921 119.34 66.7841 119.34C67.4421 119.34 67.7211 119.05 67.8211 118.414H68.9061ZM65.8501 116.406V116.906H67.7571V116.406C67.7571 115.606 67.4001 115.247 66.7871 115.247C66.1991 115.247 65.8501 115.604 65.8501 116.406Z" fill="#231F20"/>
<path d="M72.6762 119.308V120.323H72.2632C72.0057 120.34 71.7477 120.299 71.5075 120.205C71.2673 120.11 71.0507 119.964 70.8731 119.777C70.6954 119.59 70.561 119.366 70.4793 119.121C70.3976 118.876 70.3706 118.617 70.4002 118.36V115.36H69.5742V114.378H70.4002V112.984H71.4712V114.378H72.5652V115.36H71.4712V118.371C71.4712 119.007 71.7382 119.308 72.3182 119.308H72.6762Z" fill="#231F20"/>
<path d="M77.6754 114.377L75.7904 120.712C75.5114 121.672 75.0994 122.374 74.2174 122.374H73.6384V121.325H74.0054C74.4634 121.325 74.6054 121.002 74.7534 120.525L75.0094 119.644L73.1094 114.379H74.2474L75.4634 118.105L76.5564 114.379L77.6754 114.377Z" fill="#231F20"/>
<path d="M80.8537 118.158V116.463C80.8319 116.178 80.8693 115.892 80.9634 115.622C81.0576 115.352 81.2064 115.105 81.4007 114.895C81.5949 114.685 81.8304 114.518 82.0923 114.404C82.3542 114.29 82.6369 114.23 82.9227 114.23C83.2084 114.23 83.4911 114.29 83.753 114.404C84.0149 114.518 84.2504 114.685 84.4446 114.895C84.6389 115.105 84.7877 115.352 84.8819 115.622C84.976 115.892 85.0134 116.178 84.9917 116.463V118.158C85.0134 118.443 84.976 118.729 84.8819 118.999C84.7877 119.269 84.6389 119.517 84.4446 119.726C84.2504 119.936 84.0149 120.103 83.753 120.217C83.4911 120.332 83.2084 120.391 82.9227 120.391C82.6369 120.391 82.3542 120.332 82.0923 120.217C81.8304 120.103 81.5949 119.936 81.4007 119.726C81.2064 119.517 81.0576 119.269 80.9634 118.999C80.8693 118.729 80.8319 118.443 80.8537 118.158ZM83.8997 118.158V116.463C83.8997 115.637 83.5307 115.28 82.9167 115.28C82.3027 115.28 81.9467 115.637 81.9467 116.463V118.158C81.9467 118.984 82.3157 119.34 82.9167 119.34C83.5177 119.34 83.9017 118.984 83.9017 118.158H83.8997Z" fill="#231F20"/>
<path d="M87.6126 114.054V114.378H88.7506V115.36H87.6126V120.26H86.5416V115.36H85.6836V114.378H86.5416V114.054C86.5067 113.784 86.5334 113.509 86.6195 113.251C86.7056 112.993 86.849 112.757 87.0389 112.562C87.2288 112.367 87.4603 112.217 87.7162 112.124C87.9721 112.031 88.2457 111.997 88.5166 112.025H88.8616V113.006H88.5166C87.9026 113.006 87.6126 113.319 87.6126 114.054Z" fill="#231F20"/>
<path d="M96.9806 112.447V120.255H95.8536L94.1126 116.429C93.8786 115.849 93.5556 115.035 93.3656 114.529L93.3326 114.551C93.4106 115.332 93.4666 116.503 93.4666 117.239V120.251H92.3516V112.443H93.4776L95.2776 116.425C95.5116 116.949 95.8016 117.675 95.9906 118.143L96.0246 118.12C95.9356 117.351 95.8676 116.18 95.8676 115.488V112.443L96.9806 112.447Z" fill="#231F20"/>
<path d="M102.524 118.414C102.525 118.688 102.469 118.958 102.359 119.209C102.25 119.46 102.089 119.684 101.887 119.869C101.686 120.054 101.448 120.195 101.188 120.283C100.929 120.37 100.655 120.403 100.382 120.378C100.098 120.39 99.8151 120.339 99.5529 120.229C99.2907 120.119 99.056 119.952 98.8652 119.742C98.6744 119.531 98.5322 119.281 98.4487 119.009C98.3653 118.737 98.3426 118.451 98.3822 118.169V116.418C98.3441 116.137 98.3684 115.851 98.4532 115.581C98.538 115.311 98.6814 115.062 98.8731 114.854C99.0648 114.645 99.3001 114.481 99.5624 114.374C99.8246 114.266 100.107 114.218 100.39 114.232C100.676 114.215 100.962 114.261 101.228 114.367C101.494 114.472 101.733 114.635 101.929 114.844C102.125 115.053 102.272 115.302 102.361 115.574C102.45 115.846 102.477 116.134 102.442 116.418V117.723H99.4642V118.169C99.4642 118.969 99.8103 119.34 100.401 119.34C101.06 119.34 101.338 119.05 101.439 118.414H102.524ZM99.4672 116.406V116.906H101.374V116.406C101.374 115.606 101.018 115.247 100.404 115.247C99.8132 115.247 99.4672 115.604 99.4672 116.406Z" fill="#231F20"/>
<path d="M107.752 116.52V118.137C107.752 119.565 107.016 120.39 105.878 120.39C105.669 120.391 105.461 120.351 105.268 120.27C105.074 120.19 104.899 120.071 104.752 119.921V122.264H103.691V114.364H104.473L104.551 114.911C104.71 114.709 104.911 114.544 105.14 114.428C105.369 114.312 105.622 114.249 105.878 114.242C106.993 114.244 107.752 115.08 107.752 116.52ZM106.652 116.52C106.652 115.65 106.306 115.259 105.703 115.259C105.146 115.259 104.756 115.672 104.756 116.508V118.137C104.756 118.906 105.112 119.375 105.703 119.375C106.328 119.375 106.652 118.995 106.652 118.137V116.52Z" fill="#231F20"/>
<path d="M113.006 116.675V120.255H111.924V116.708C111.924 115.659 111.645 115.258 111.098 115.258C110.484 115.258 110.098 115.749 110.098 116.618V120.255H109.016V112.201H110.098V114.945C110.234 114.725 110.425 114.544 110.651 114.42C110.878 114.295 111.133 114.23 111.392 114.232C112.414 114.232 113.006 115.013 113.006 116.675Z" fill="#231F20"/>
<path d="M117.365 114.334V115.405C117.136 115.31 116.889 115.265 116.641 115.271C115.904 115.271 115.441 115.751 115.441 116.632V120.257H114.359V114.379H115.129L115.251 115.059C115.48 114.726 115.809 114.476 116.191 114.345C116.573 114.215 116.986 114.21 117.37 114.334H117.365Z" fill="#231F20"/>
<path d="M118.08 118.159V116.464C118.059 116.18 118.097 115.894 118.192 115.625C118.286 115.356 118.435 115.109 118.63 114.9C118.824 114.692 119.059 114.525 119.32 114.411C119.582 114.297 119.864 114.238 120.149 114.238C120.434 114.238 120.717 114.297 120.978 114.411C121.24 114.525 121.475 114.692 121.669 114.9C121.863 115.109 122.012 115.356 122.107 115.625C122.201 115.894 122.239 116.18 122.219 116.464V118.159C122.239 118.444 122.201 118.729 122.107 118.998C122.012 119.268 121.863 119.514 121.669 119.723C121.475 119.932 121.24 120.099 120.978 120.213C120.717 120.326 120.434 120.385 120.149 120.385C119.864 120.385 119.582 120.326 119.32 120.213C119.059 120.099 118.824 119.932 118.63 119.723C118.435 119.514 118.286 119.268 118.192 118.998C118.097 118.729 118.059 118.444 118.08 118.159ZM121.126 118.159V116.464C121.126 115.638 120.758 115.281 120.144 115.281C119.53 115.281 119.174 115.638 119.174 116.464V118.159C119.174 118.985 119.542 119.341 120.144 119.341C120.746 119.341 121.126 118.985 121.126 118.159Z" fill="#231F20"/>
<path d="M123.469 112.182H124.551V120.257H123.469V112.182Z" fill="#231F20"/>
<path d="M125.802 118.159V116.464C125.782 116.18 125.82 115.894 125.914 115.625C126.009 115.356 126.158 115.109 126.352 114.9C126.546 114.692 126.782 114.525 127.043 114.411C127.305 114.297 127.587 114.238 127.872 114.238C128.157 114.238 128.439 114.297 128.701 114.411C128.962 114.525 129.197 114.692 129.392 114.9C129.586 115.109 129.735 115.356 129.829 115.625C129.924 115.894 129.962 116.18 129.941 116.464V118.159C129.962 118.444 129.924 118.729 129.829 118.998C129.735 119.268 129.586 119.514 129.392 119.723C129.197 119.932 128.962 120.099 128.701 120.213C128.439 120.326 128.157 120.385 127.872 120.385C127.587 120.385 127.305 120.326 127.043 120.213C126.782 120.099 126.546 119.932 126.352 119.723C126.158 119.514 126.009 119.268 125.914 118.998C125.82 118.729 125.782 118.444 125.802 118.159ZM128.848 118.159V116.464C128.848 115.638 128.48 115.281 127.865 115.281C127.25 115.281 126.896 115.638 126.896 116.464V118.159C126.896 118.985 127.264 119.341 127.865 119.341C128.466 119.341 128.845 118.985 128.845 118.159H128.848Z" fill="#231F20"/>
<path d="M135.155 114.377V120.556C135.124 121.055 134.905 121.524 134.541 121.868C134.177 122.212 133.697 122.404 133.197 122.407C132.696 122.41 132.214 122.223 131.846 121.883C131.479 121.543 131.254 121.077 131.218 120.578H132.277C132.276 120.693 132.3 120.807 132.346 120.912C132.392 121.018 132.459 121.112 132.544 121.19C132.629 121.268 132.729 121.327 132.838 121.363C132.947 121.4 133.062 121.414 133.177 121.403C133.293 121.415 133.409 121.402 133.52 121.364C133.63 121.326 133.73 121.265 133.814 121.184C133.898 121.103 133.963 121.005 134.005 120.897C134.047 120.788 134.065 120.672 134.058 120.556V119.642C133.748 119.895 133.358 120.03 132.958 120.021C132.688 120.017 132.422 119.956 132.177 119.843C131.932 119.73 131.714 119.567 131.536 119.364C131.359 119.161 131.225 118.923 131.145 118.665C131.065 118.407 131.04 118.136 131.072 117.868V116.468C131.072 115.084 131.854 114.237 132.946 114.237C133.199 114.23 133.451 114.281 133.682 114.388C133.912 114.494 134.115 114.652 134.274 114.85L134.363 114.382L135.155 114.377ZM134.062 117.868V116.396C134.062 115.637 133.672 115.269 133.136 115.269C132.523 115.269 132.166 115.637 132.166 116.463V117.863C132.166 118.621 132.523 118.989 133.136 118.989C133.716 118.991 134.062 118.626 134.062 117.868Z" fill="#231F20"/>
<path d="M140.519 114.377L138.634 120.712C138.355 121.672 137.942 122.374 137.061 122.374H136.482V121.325H136.849C137.307 121.325 137.449 121.002 137.597 120.525L137.853 119.644L135.953 114.379H137.099L138.315 118.105L139.407 114.379L140.519 114.377Z" fill="#231F20"/>
<mask id="mask1_219_165" style="mask-type:luminance" maskUnits="userSpaceOnUse" x="378" y="0" width="165" height="125">
<path d="M542.455 0.65625H378.285V124.486H542.455V0.65625Z" fill="white"/>
</mask>
<g mask="url(#mask1_219_165)">
<path d="M469.311 118.8C501.108 118.8 526.884 93.024 526.884 61.2273C526.884 29.4306 501.108 3.6543 469.311 3.6543C437.515 3.6543 411.738 29.4306 411.738 61.2273C411.738 93.024 437.515 118.8 469.311 118.8Z" fill="#E5A636"/>
<path d="M540.897 112.992H381.473V121.442H540.897V112.992Z" fill="#00ABC5"/>
<path d="M534.111 107.711H381.473V113.873H534.111V107.711Z" fill="#00ABC5"/>
<path d="M436.996 106.92H382.605V112.993H436.996V106.92Z" fill="#E29035"/>
<path d="M435.036 38.9609C440.57 50.7669 446.036 61.7889 455.236 70.4349C458.316 73.3392 461.787 75.798 465.548 77.74C466.228 78.091 467.013 78.505 466.981 79.201C466.952 79.846 466.007 80.008 465.412 80.266C453.994 85.217 442.279 89.4059 430.618 93.7289C427.04 95.0549 423.769 97.107 420.057 98.098C419.817 98.162 419.591 98.3669 419.357 98.3629C418.399 98.3489 417.126 99.3129 416.576 98.3749C415.989 97.3749 417.476 96.9929 418.09 96.4359C425.509 89.7359 428.953 80.936 431.333 71.567C432.436 67.0718 433.301 62.5214 433.923 57.9349C434.646 52.502 434.968 47.0232 434.885 41.5429C434.883 40.9009 434.958 40.2579 435.036 38.9609Z" fill="#AB402D"/>
<path d="M438.656 93.3002C456.156 85.8872 474.256 81.2282 490.515 71.9512C490.652 72.2398 490.677 72.5692 490.585 72.8752C490.492 73.1812 490.289 73.4418 490.015 73.6062C481.84 80.9332 473.625 88.2822 463.107 92.1192C455.336 94.9542 447.366 96.9402 438.656 93.3002Z" fill="#AB402D"/>
<path d="M430.877 25.7305C430.616 29.5428 430.002 33.3227 429.042 37.0215C427.703 42.9075 426.833 48.8845 425.384 54.7455C425.091 55.9295 424.706 56.3265 423.599 56.1295C422.534 55.9405 422.006 55.4765 422.299 54.2395C424.402 44.9634 427.006 35.808 430.099 26.8135C430.325 26.4296 430.585 26.0672 430.877 25.7305Z" fill="#AB402D"/>
<path d="M506.303 59.1923C503.377 56.8033 500.378 54.5283 497.441 52.1393C496.924 51.7053 484.773 42.7703 484.225 42.3873C472.792 34.5422 460.686 27.725 448.051 22.0153C447.089 21.5703 446.086 21.1873 445.145 20.7153C442.59 19.4433 439.064 19.1433 439.445 14.8613C438.666 14.5704 437.868 14.3365 437.056 14.1613C435.225 13.9133 434.687 13.0613 435.356 11.2243C435.741 10.0114 435.991 8.75933 436.1 7.49127C436.154 7.28489 436.167 7.06981 436.139 6.85832C436.11 6.64683 436.04 6.44308 435.932 6.25872C435.825 6.07437 435.682 5.91303 435.512 5.78392C435.342 5.6548 435.148 5.56045 434.942 5.50627C434.498 5.36123 434.016 5.39188 433.595 5.5919C433.173 5.79192 432.845 6.14606 432.677 6.58126C432.408 7.01639 432.21 7.49078 432.088 7.98727C431.602 10.8113 430.867 13.0653 427.331 11.1933C426.943 11.0094 426.5 10.981 426.092 11.1138C425.684 11.2466 425.343 11.5305 425.138 11.9073C424.979 12.1618 424.893 12.4556 424.891 12.7558C424.89 13.0561 424.972 13.3509 425.128 13.6073C427.238 17.7853 427.041 18.2913 423.484 21.3633C416.153 27.8158 409.264 34.7531 402.863 42.1283C395.769 50.1743 390.309 59.4603 384.58 68.5283C382.791 71.3923 381.312 74.4533 379.792 77.4733C379.306 78.4453 379.016 80.2033 380.592 79.8933C382.929 79.4173 383.26 80.9373 383.953 82.3233C388.553 91.4653 388.513 91.4553 383.363 100.586C382.636 101.665 382.059 102.837 381.647 104.071C381.528 104.52 381.469 104.982 381.471 105.446L381.502 121.455H385.225C385.225 120.09 385.204 118.735 385.183 117.38C385.121 114.257 387.365 115.633 388.73 115.364C390.282 115.053 391.33 115.519 391.119 117.484C391.006 118.497 391.171 119.531 391.078 120.565C391.047 120.861 391.047 121.159 391.078 121.455H394.77C394.832 120.203 394.729 118.942 394.822 117.691C394.884 116.925 394.439 116.015 395.287 115.405C398.892 115.168 402.508 115.158 406.114 115.374C410.52 115.302 410.106 114.505 410.22 119.418C410.241 120.09 410.23 120.772 410.22 121.455H413.695C413.726 119.986 413.736 118.518 413.695 117.049C413.643 115.467 414.439 115.229 415.695 115.249C419.108 115.301 422.51 115.349 425.902 115.28C427.557 115.259 428.395 115.766 428.177 117.627C428.022 118.899 428.105 120.182 428.077 121.454C429.07 121.433 430.062 121.402 431.045 121.381C431.301 120.139 431.446 118.876 431.479 117.607C431.386 115.818 432.038 115.228 433.744 115.218C435.637 115.197 435.699 116.283 435.606 117.679C435.543 118.6 435.512 119.53 435.461 120.471C436.195 121.795 437.426 121.247 438.501 121.309C438.553 118.32 438.677 115.332 438.615 112.364C438.561 111.977 438.584 111.584 438.684 111.206C438.783 110.829 438.957 110.474 439.194 110.164C439.523 109.594 439.741 108.965 439.835 108.313C439.901 107.624 439.813 106.928 439.577 106.276C439.546 106.255 439.504 106.234 439.477 106.214C438.691 105.004 437.777 104.332 436.22 104.869C435.324 105.043 434.407 105.082 433.5 104.983C432.476 104.993 431.845 104.776 431.732 104.073C431.691 103.641 431.75 103.206 431.907 102.801C432.159 101.636 432.28 100.446 432.269 99.2543C432.518 96.4413 434.379 94.9733 436.882 95.9763C444.369 99.0063 451.882 97.9613 459.405 96.3173C460.129 96.1623 460.832 95.9653 461.535 95.8173C461.556 95.8063 461.577 95.8063 461.587 95.7963C462.549 95.4963 463.573 95.1343 464.669 94.6793C465.87 94.1728 467.044 93.6033 468.185 92.9733L468.206 92.9523C468.271 92.9055 468.34 92.864 468.412 92.8283L468.536 92.7663C469.281 92.4353 470.015 92.0733 470.729 91.6903C476.572 88.5983 481.484 84.1523 486.375 79.7053C490.781 75.6923 494.928 71.3903 499.147 67.1503C501.137 65.3518 503.426 63.9137 505.91 62.9003C508.278 61.7623 508.412 60.9143 506.303 59.1923ZM435.123 21.6483C436.26 21.1933 436.964 23.0333 437.656 23.9853C444.378 33.1853 453.148 40.3353 460.831 48.5563C461.804 49.6003 462.807 50.6353 463.841 51.6273C464.616 52.3513 467.409 55.3193 467.895 55.8363C469.995 58.0083 472.104 60.1803 474.182 62.3623C474.503 62.6823 482.331 69.7623 482.672 70.8423C482.733 70.9969 482.738 71.1679 482.687 71.3262C482.637 71.4844 482.532 71.6202 482.393 71.7103C481.993 72.0513 473.5 75.8783 471.028 76.0333C468.743 76.1573 462.651 72.3203 461.928 71.7103C460.582 70.5836 459.231 69.4599 457.874 68.3393C457.46 67.9983 452.062 61.8553 451.162 60.7483C443.655 51.4003 439.021 40.5003 435.05 29.2383C434.705 27.8462 434.58 26.409 434.678 24.9783C434.968 23.9753 434.027 22.0923 435.123 21.6483ZM433.696 56.9633C434.419 51.3886 434.74 45.7691 434.657 40.1483C434.657 39.4873 434.73 38.8353 434.802 37.5013C440.325 49.6113 445.774 60.9143 454.947 69.7763C458 72.751 461.461 75.2763 465.226 77.2763C465.788 77.4894 466.264 77.882 466.581 78.3933C466.636 78.5128 466.661 78.6439 466.654 78.7753C466.633 79.4373 465.682 79.6033 465.092 79.8613C453.706 84.9493 442.021 89.2513 430.397 93.6773C426.819 95.0423 423.561 97.1423 419.859 98.1553C419.716 98.2109 419.577 98.2778 419.445 98.3553C419.36 98.4057 419.264 98.4339 419.166 98.4373C418.215 98.4273 416.943 99.4093 416.395 98.4483C415.815 97.4243 417.295 97.0313 417.904 96.4623C425.304 89.5853 428.742 80.5573 431.121 70.9503C432.217 66.3348 433.076 61.6664 433.696 56.9633ZM385.071 109.901C385.04 106.736 387.005 107.75 388.535 107.564C390.235 107.364 391.172 107.688 391.213 109.932C391.255 112.724 389.569 112.021 388.113 112.104C386.674 112.021 385.081 112.683 385.071 109.901ZM410.138 110.707C410.221 111.669 409.797 112.107 408.838 112.041C404.877 111.824 400.927 112.486 396.987 112.041C394.826 112.424 394.722 111.141 394.67 109.394C394.608 107.284 395.901 107.584 397.101 107.636C401.341 107.812 405.612 107.15 409.831 107.967C410.345 108.836 410.045 109.792 410.138 110.707ZM413.644 109.89C413.696 107.843 414.481 107.502 416.198 107.553C419.58 107.653 422.992 107.667 426.398 107.553C428.176 107.491 428.187 108.515 428.187 109.797C428.187 111.079 428.269 112.217 426.46 112.104C424.651 111.991 422.82 112.093 420.989 112.093C419.407 112.073 417.845 112.021 416.263 112.093C414.709 112.166 413.592 112.124 413.644 109.892V109.89ZM435.568 109.953C435.516 111.245 435.578 112.217 433.758 112.145C432.058 112.073 431.214 111.669 431.627 109.828C431.317 108.163 431.917 107.491 433.603 107.512C435.361 107.543 435.63 108.453 435.568 109.953ZM416.126 77.7193C417.636 71.9793 419.176 66.2403 420.635 60.4903C420.935 59.2703 421.514 59.0833 422.579 59.2493C423.768 59.4563 423.84 60.2833 423.613 61.1493C421.141 70.7873 420.728 80.8493 418.132 90.4663C417.667 92.1733 417.181 93.9313 415.381 94.7663C414.142 96.5445 412.382 97.8956 410.345 98.6343C411.431 94.5293 412.289 90.7753 413.427 87.0933C414.275 84.3323 414.585 81.3743 416.105 78.8303C415.795 78.4633 416.012 78.0923 416.126 77.7193ZM419.28 54.0783C414.843 69.8596 410.427 85.6439 406.033 101.431C405.857 102.43 405.372 103.349 404.647 104.058C404.274 104.316 403.852 104.494 403.407 104.581C402.962 104.668 402.504 104.663 402.062 104.565C399.104 104.203 396.095 104.358 393.106 104.275C393.096 104.203 393.096 104.13 393.085 104.058C392.745 101.137 392.051 98.2689 391.017 95.5163C390.892 95.1672 390.853 94.7932 390.904 94.426C390.954 94.0588 391.092 93.709 391.306 93.4063C401.875 74.4823 412.051 55.3403 423.282 36.8293C423.411 36.6111 423.521 36.3826 423.613 36.1463C423.84 36.2703 424.058 36.3843 424.285 36.4983C422.62 42.3613 420.934 48.2253 419.28 54.0783ZM414.843 104.513C412.703 104.613 410.543 104.534 408.39 104.534C408.38 104.379 408.37 104.213 408.349 104.058C408.349 103.986 408.339 103.913 408.339 103.841C410.345 103.282 412.372 102.703 414.388 102.165C414.906 102.021 415.629 101.665 415.619 102.693C415.679 103.147 415.672 103.607 415.598 104.058C415.503 104.306 415.288 104.482 414.843 104.513ZM432.043 35.7223C432.57 53.1893 430.043 70.0353 422.715 85.9613C422.436 85.9093 422.146 85.8613 421.857 85.7853C425.021 69.0519 428.171 52.3163 431.309 35.5783C431.545 35.6193 431.803 35.6713 432.041 35.7223H432.043ZM429.882 26.1053C430.106 25.7162 430.362 25.346 430.647 24.9983C430.626 25.3813 430.606 25.7533 430.575 26.1363V26.1463C430.252 29.6625 429.671 33.1503 428.837 36.5813C427.493 42.6103 426.624 48.7423 425.187 54.7613C424.987 55.5613 424.752 56.0123 424.287 56.1613L424.277 56.1713C423.99 56.2543 423.686 56.2577 423.398 56.1813C422.343 55.9813 421.805 55.5093 422.098 54.2373C424.196 44.7298 426.794 35.3395 429.88 26.1053H429.882ZM383.842 78.2363C383.428 77.3673 384.173 76.6023 384.556 75.8883C394.485 56.7202 407.856 39.5431 424.003 25.2153C424.634 24.6573 425.244 24.0883 425.854 23.5303C425.988 23.6233 426.112 23.7163 426.237 23.8193C414.037 45.5673 401.821 67.3053 389.359 89.5193C387.408 85.5373 385.588 81.9173 383.84 78.2363H383.842ZM386.489 102.228C386.781 101.293 387.244 100.42 387.854 99.6533C388.531 98.6818 389.107 97.6429 389.571 96.5533C390.057 98.1353 390.45 99.2423 390.74 100.379C391.205 102.199 391.246 103.399 390.781 104.061C390.233 104.861 388.992 104.919 386.903 104.402C386.649 104.352 386.413 104.234 386.221 104.061C385.722 103.52 386.291 102.683 386.487 102.228H386.489ZM423.543 104.854C422.716 104.917 421.886 104.906 421.061 104.823C420.161 104.668 418.579 105.523 418.455 104.058C418.445 104.014 418.441 103.969 418.444 103.924C418.413 102.507 418.361 100.666 420.502 100.097C423.139 99.3973 425.683 98.3973 428.279 97.5333C429.468 97.1403 430.357 97.0573 429.727 98.8333C429.634 99.1433 429.665 99.5053 429.603 99.8333C429.127 102.149 428.879 103.38 428.237 104.052C427.503 104.834 426.24 104.834 423.541 104.854H423.543ZM446.914 95.2263C446.686 95.2163 446.459 95.1953 446.232 95.1753C446.165 95.1735 446.098 95.1664 446.032 95.1543C445.98 95.1543 445.918 95.1443 445.866 95.1443C445.116 95.0822 444.37 94.9749 443.633 94.8233C441.836 94.4954 440.084 93.9612 438.41 93.2313C455.867 85.6313 473.902 80.8523 490.128 71.3383C490.23 71.5795 490.269 71.8428 490.241 72.1033C490.148 72.4788 489.929 72.811 489.621 73.0443C481.472 80.5523 473.271 88.0913 462.785 92.0213C457.666 93.9443 452.464 95.4853 447.014 95.2263H446.914ZM501.268 61.3693C496.242 64.2693 491.309 67.3363 486.139 69.9633C483.939 71.0693 483.295 68.5153 482.033 67.2323C480.844 65.9323 477.948 63.6753 477.545 63.0863C475.177 59.7763 465.945 50.8313 465.353 50.2213C457.243 41.8019 449.138 33.3806 441.038 24.9573C440.277 24.0958 439.562 23.1946 438.897 22.2573C446.473 24.7968 453.801 28.0228 460.79 31.8953C469.012 36.1835 476.961 40.9773 484.59 46.2493C484.932 46.4873 485.314 46.6623 485.635 46.9313C486.38 47.5833 497.486 56.3633 501.457 59.6513C502.28 60.3453 502.156 60.8723 501.266 61.3693H501.268Z" fill="#3A241B"/>
</g>
<path d="M9.00081 144.396C9.00081 147.168 7.56681 148.679 5.02481 148.679H3.20081V153.554H1.63281V140.17H5.01781C7.56281 140.17 9.00081 141.7 9.00081 144.396ZM7.41382 144.396C7.41382 142.579 6.62981 141.661 5.02481 141.661H3.20081V147.191H5.01781C6.62581 147.191 7.40981 146.308 7.40981 144.396H7.41382Z" fill="#2A317C"/>
<path d="M17.4445 148.506H16.0875V153.554H14.5195V140.17H17.7885C20.3125 140.17 21.7085 141.661 21.7085 144.224C21.7085 146.424 20.7335 147.875 19.0505 148.354L22.1505 153.554H20.3715L17.4445 148.506ZM16.0875 147.034H17.7695C19.3175 147.034 20.1215 146.059 20.1215 144.281C20.1215 142.541 19.3215 141.643 17.7885 141.643H16.0885L16.0875 147.034Z" fill="#2A317C"/>
<path d="M34.4012 152.081V153.554H27.7852V140.17H34.1912V141.623H29.3512V146.04H33.8432V147.474H29.3512V152.081H34.4012Z" fill="#2A317C"/>
<path d="M40 149.692V144.032C40 141.394 41.491 139.922 43.729 139.922C46.023 139.922 47.438 141.337 47.571 143.922H46.023C45.908 142.201 45.106 141.398 43.709 141.398C42.429 141.398 41.569 142.24 41.569 144.036V149.696C41.569 151.474 42.469 152.315 43.769 152.315C45.184 152.315 45.969 151.493 46.12 149.815H47.669C47.516 152.358 46.102 153.791 43.769 153.791C41.506 153.784 40 152.331 40 149.692Z" fill="#2A317C"/>
<path d="M55.0407 140.17V153.554H53.4727V140.17H55.0407Z" fill="#2A317C"/>
<path d="M60.8304 149.998H62.4174C62.3862 150.301 62.4214 150.607 62.5206 150.894C62.6199 151.182 62.7807 151.445 62.992 151.664C63.2032 151.883 63.4597 152.053 63.7436 152.163C64.0274 152.272 64.3318 152.319 64.6354 152.298C64.926 152.326 65.2193 152.29 65.4941 152.191C65.7689 152.092 66.0185 151.934 66.2249 151.728C66.4314 151.521 66.5896 151.272 66.6882 150.997C66.7869 150.722 66.8235 150.429 66.7954 150.138C66.7954 147.27 61.0404 147.193 61.0404 143.254C61.0373 142.795 61.1297 142.341 61.3116 141.919C61.4934 141.497 61.7609 141.118 62.097 140.806C62.4331 140.493 62.8305 140.253 63.2641 140.102C63.6976 139.951 64.1578 139.892 64.6154 139.928C65.1 139.907 65.5835 139.988 66.035 140.165C66.4864 140.342 66.8956 140.612 67.2362 140.958C67.5768 141.303 67.8411 141.716 68.0122 142.17C68.1833 142.623 68.2573 143.108 68.2294 143.592H66.6434C66.5854 142.119 65.8014 141.431 64.6354 141.431C64.3787 141.399 64.1182 141.423 63.8717 141.502C63.6252 141.58 63.3987 141.711 63.2078 141.886C63.0169 142.061 62.8662 142.274 62.766 142.513C62.6658 142.751 62.6185 143.009 62.6274 143.267C62.6274 146.115 68.4014 146.058 68.4014 150.15C68.417 150.642 68.3299 151.132 68.1457 151.589C67.9616 152.045 67.6844 152.458 67.3319 152.802C66.9793 153.145 66.5591 153.412 66.0979 153.584C65.6368 153.756 65.1449 153.831 64.6534 153.802C64.1446 153.835 63.6347 153.759 63.1574 153.579C62.6801 153.4 62.2464 153.121 61.885 152.761C61.5236 152.402 61.2426 151.97 61.0608 151.493C60.879 151.017 60.8005 150.507 60.8304 149.998Z" fill="#2A317C"/>
<path d="M75.6227 140.17V153.554H74.0547V140.17H75.6227Z" fill="#2A317C"/>
<path d="M81.8906 149.348V144.358C81.8906 141.623 83.3816 139.922 85.8666 139.922C88.3516 139.922 89.8246 141.622 89.8246 144.358V149.348C89.8246 152.101 88.3536 153.803 85.8666 153.803C83.3796 153.803 81.8906 152.101 81.8906 149.348ZM88.2196 149.348V144.358C88.2196 142.503 87.4196 141.451 85.8666 141.451C84.2996 141.451 83.4966 142.503 83.4966 144.358V149.348C83.4966 151.221 84.2966 152.273 85.8666 152.273C87.4156 152.273 88.2196 151.221 88.2196 149.348Z" fill="#2A317C"/>
<path d="M103.741 140.17V153.554H102.154L98.8662 146.365C98.4452 145.409 97.8332 143.879 97.5472 143.114L97.4892 143.134C97.5662 144.32 97.6432 146.098 97.6432 147.244V153.554H96.0742V140.17H97.6612L101.007 147.47C101.447 148.388 102.04 149.803 102.346 150.586L102.403 150.567C102.308 149.401 102.192 147.527 102.192 146.361V140.166L103.741 140.17Z" fill="#2A317C"/>
<path d="M117.807 152.714C117.811 152.511 117.874 152.313 117.99 152.145C118.106 151.978 118.268 151.848 118.457 151.773C118.646 151.697 118.854 151.679 119.053 151.721C119.252 151.763 119.434 151.863 119.577 152.008C119.72 152.154 119.816 152.338 119.854 152.538C119.893 152.738 119.871 152.945 119.792 153.132C119.713 153.32 119.581 153.48 119.411 153.593C119.242 153.705 119.043 153.765 118.839 153.765C118.7 153.772 118.561 153.75 118.431 153.699C118.302 153.649 118.184 153.571 118.087 153.472C117.989 153.373 117.914 153.254 117.866 153.123C117.817 152.992 117.797 152.853 117.807 152.714Z" fill="#2A317C"/>
<path d="M140.533 152.081V153.554H133.918V140.17H140.318V141.623H135.481V146.04H139.974V147.474H135.481V152.081H140.533Z" fill="#2A317C"/>
<path d="M151.791 153.554L149.44 148.162L147.088 153.554H145.348L148.561 146.591L145.521 140.166H147.26L149.44 145.099L151.619 140.166H153.36L150.319 146.591L153.531 153.55L151.791 153.554Z" fill="#2A317C"/>
<path d="M158.48 149.692V144.032C158.48 141.394 159.971 139.922 162.208 139.922C164.502 139.922 165.917 141.337 166.051 143.922H164.502C164.388 142.201 163.585 141.398 162.189 141.398C160.908 141.398 160.048 142.24 160.048 144.036V149.696C160.048 151.474 160.948 152.315 162.248 152.315C163.663 152.315 164.448 151.493 164.6 149.815H166.149C165.995 152.358 164.581 153.791 162.249 153.791C159.99 153.784 158.48 152.331 158.48 149.692Z" fill="#2A317C"/>
<path d="M178.568 152.081V153.554H171.953V140.17H178.359V141.623H173.522V146.04H178.014V147.474H173.522V152.081H178.568Z" fill="#2A317C"/>
<path d="M190.765 152.063V153.554H184.531V140.17H186.102V152.063H190.765Z" fill="#2A317C"/>
<path d="M202.366 152.063V153.554H196.133V140.17H197.702V152.063H202.366Z" fill="#2A317C"/>
<path d="M214.349 152.081V153.554H207.734V140.17H214.139V141.623H209.301V146.04H213.793V147.474H209.301V152.081H214.349Z" fill="#2A317C"/>
<path d="M227.979 140.17V153.554H226.392L223.104 146.365C222.683 145.409 222.07 143.879 221.784 143.114L221.727 143.134C221.803 144.32 221.88 146.098 221.88 147.244V153.554H220.312V140.17H221.902L225.247 147.47C225.688 148.388 226.28 149.803 226.586 150.586L226.645 150.567C226.545 149.401 226.434 147.527 226.434 146.361V140.166L227.979 140.17Z" fill="#2A317C"/>
<path d="M234.242 149.692V144.032C234.242 141.394 235.733 139.922 237.971 139.922C240.265 139.922 241.68 141.337 241.814 143.922H240.265C240.15 142.201 239.348 141.398 237.951 141.398C236.671 141.398 235.811 142.24 235.811 144.036V149.696C235.811 151.474 236.711 152.315 238.011 152.315C239.426 152.315 240.211 151.493 240.362 149.815H241.911C241.758 152.358 240.344 153.791 238.011 153.791C235.753 153.784 234.242 152.331 234.242 149.692Z" fill="#2A317C"/>
<path d="M254.334 152.081V153.554H247.719V140.17H254.119V141.623H249.282V146.04H253.774V147.474H249.282V152.081H254.334Z" fill="#2A317C"/>
<path d="M267.729 152.714C267.733 152.511 267.796 152.313 267.912 152.145C268.028 151.978 268.19 151.848 268.379 151.773C268.568 151.697 268.776 151.679 268.975 151.721C269.174 151.763 269.356 151.863 269.499 152.008C269.642 152.154 269.738 152.338 269.776 152.538C269.815 152.738 269.793 152.945 269.714 153.132C269.635 153.32 269.503 153.48 269.333 153.593C269.164 153.705 268.965 153.765 268.761 153.765C268.622 153.773 268.483 153.75 268.353 153.7C268.223 153.649 268.106 153.572 268.008 153.472C267.911 153.373 267.835 153.254 267.787 153.123C267.739 152.993 267.719 152.853 267.729 152.714Z" fill="#2A317C"/>
<path d="M285.408 140.17V153.554H283.84V140.17H285.408Z" fill="#2A317C"/>
<path d="M299.706 140.17V153.554H298.119L294.831 146.365C294.41 145.409 293.798 143.879 293.512 143.114L293.454 143.134C293.53 144.32 293.607 146.098 293.607 147.244V153.554H292.039V140.17H293.626L296.972 147.47C297.412 148.388 298.005 149.803 298.311 150.586L298.368 150.567C298.268 149.401 298.157 147.527 298.157 146.361V140.166L299.706 140.17Z" fill="#2A317C"/>
<path d="M313.999 140.17V153.554H312.412L309.124 146.365C308.703 145.409 308.091 143.879 307.805 143.114L307.747 143.134C307.823 144.32 307.9 146.098 307.9 147.244V153.554H306.332V140.17H307.919L311.265 147.47C311.705 148.388 312.298 149.803 312.603 150.586L312.661 150.567C312.561 149.401 312.45 147.527 312.45 146.361V140.166L313.999 140.17Z" fill="#2A317C"/>
<path d="M320.273 149.348V144.358C320.273 141.623 321.764 139.922 324.249 139.922C326.734 139.922 328.207 141.622 328.207 144.358V149.348C328.207 152.101 326.735 153.803 324.249 153.803C321.763 153.803 320.273 152.101 320.273 149.348ZM326.602 149.348V144.358C326.602 142.503 325.802 141.451 324.249 141.451C322.682 141.451 321.879 142.503 321.879 144.358V149.348C321.879 151.221 322.679 152.273 324.249 152.273C325.802 152.273 326.602 151.221 326.602 149.348Z" fill="#2A317C"/>
<path d="M333.23 140.17H334.874L336.691 148.029C336.978 149.31 337.191 150.456 337.417 151.508H337.493C337.703 150.456 337.933 149.308 338.22 148.029L340.02 140.17H341.684L338.338 153.554H336.578L333.23 140.17Z" fill="#2A317C"/>
<path d="M351.583 150.648H347.703L346.996 153.554H345.352L348.793 140.17H350.493L353.935 153.554H352.29L351.583 150.648ZM351.238 149.195L350.149 144.663C349.939 143.803 349.749 142.675 349.671 142.163H349.613C349.537 142.68 349.346 143.808 349.136 144.663L348.046 149.195H351.238Z" fill="#2A317C"/>
<path d="M364.885 141.643H362.018V153.554H360.431V141.643H357.562V140.17H364.885V141.643Z" fill="#2A317C"/>
<path d="M371.936 140.17V153.554H370.367V140.17H371.936Z" fill="#2A317C"/>
<path d="M378.199 149.348V144.358C378.199 141.623 379.69 139.922 382.176 139.922C384.662 139.922 386.134 141.622 386.134 144.358V149.348C386.134 152.101 384.662 153.803 382.176 153.803C379.69 153.803 378.199 152.101 378.199 149.348ZM384.528 149.348V144.358C384.528 142.503 383.728 141.451 382.176 141.451C380.608 141.451 379.806 142.503 379.806 144.358V149.348C379.806 151.221 380.606 152.273 382.176 152.273C383.728 152.273 384.531 151.221 384.531 149.348H384.528Z" fill="#2A317C"/>
<path d="M400.054 140.17V153.554H398.467L395.179 146.365C394.758 145.409 394.146 143.879 393.86 143.114L393.802 143.134C393.878 144.32 393.955 146.098 393.955 147.244V153.554H392.387V140.17H393.974L397.319 147.47C397.76 148.388 398.353 149.803 398.658 150.586L398.716 150.567C398.616 149.401 398.505 147.527 398.505 146.361V140.166L400.054 140.17Z" fill="#2A317C"/>
<path d="M425.741 148.506H424.384V153.554H422.816V140.17H426.085C428.609 140.17 430.005 141.661 430.005 144.224C430.005 146.424 429.029 147.875 427.347 148.354L430.447 153.554H428.669L425.741 148.506ZM424.384 147.034H426.066C427.614 147.034 428.418 146.059 428.418 144.281C428.418 142.541 427.618 141.643 426.085 141.643H424.385L424.384 147.034Z" fill="#EE7B65"/>
<path d="M442.693 152.081V153.554H436.078V140.17H442.484V141.623H437.647V146.04H442.139V147.474H437.647V152.081H442.693Z" fill="#EE7B65"/>
<path d="M456.323 140.17V153.554H454.736L451.448 146.365C451.027 145.409 450.415 143.879 450.129 143.114L450.071 143.134C450.148 144.32 450.225 146.098 450.225 147.244V153.554H448.656V140.17H450.243L453.589 147.47C454.029 148.388 454.622 149.803 454.928 150.586L454.985 150.567C454.885 149.401 454.775 147.527 454.775 146.361V140.166L456.323 140.17Z" fill="#EE7B65"/>
<path d="M467.96 150.648H464.078L463.371 153.554H461.727L465.168 140.17H466.868L470.31 153.554H468.665L467.96 150.648ZM467.615 149.195L466.525 144.663C466.316 143.803 466.125 142.675 466.048 142.163H465.99C465.914 142.68 465.723 143.808 465.513 144.663L464.423 149.195H467.615Z" fill="#EE7B65"/>
<path d="M481.932 152.063V153.554H475.699V140.17H477.268V152.063H481.932Z" fill="#EE7B65"/>
<path d="M495 149.692V144.032C495 141.394 496.491 139.922 498.729 139.922C501.022 139.922 502.438 141.337 502.571 143.922H501.022C500.908 142.201 500.105 141.398 498.709 141.398C497.429 141.398 496.568 142.24 496.568 144.036V149.696C496.568 151.474 497.468 152.315 498.768 152.315C500.183 152.315 500.968 151.493 501.119 149.815H502.668C502.515 152.358 501.101 153.791 498.768 153.791C496.514 153.784 495 152.331 495 149.692Z" fill="#EE7B65"/>
<path d="M513.109 150.648H509.227L508.52 153.554H506.875L510.317 140.17H512.017L515.458 153.554H513.814L513.109 150.648ZM512.764 149.195L511.674 144.663C511.464 143.803 511.274 142.675 511.196 142.163H511.139C511.063 142.68 510.871 143.808 510.661 144.663L509.571 149.195H512.764Z" fill="#EE7B65"/>
<path d="M523.774 148.506H522.416V153.554H520.848V140.17H524.117C526.641 140.17 528.037 141.661 528.037 144.224C528.037 146.424 527.062 147.875 525.379 148.354L528.479 153.554H526.703L523.774 148.506ZM522.416 147.034H524.103C525.652 147.034 526.455 146.059 526.455 144.281C526.455 142.541 525.655 141.643 524.122 141.643H522.422L522.416 147.034Z" fill="#EE7B65"/>
<path d="M540.725 152.081V153.554H534.109V140.17H540.515V141.623H535.678V146.04H540.17V147.474H535.678V152.081H540.725Z" fill="#EE7B65"/>
</svg>
