<svg id="Layer_1" data-name="Layer 1" xmlns="http://www.w3.org/2000/svg" xmlns:xlink="http://www.w3.org/1999/xlink" viewBox="0 0 841.89 595.276"><defs><style>.cls-1{fill:none;}.cls-2{fill:#3a241b;}.cls-3{fill:#2a317c;}.cls-4{fill:#ee7b65;}.cls-5{fill:#231f20;}.cls-6{fill:#ab402d;}.cls-7{fill:#e29035;}.cls-8{fill:#37aade;}.cls-9{fill:#fefefe;}.cls-10{fill:#19a99f;}.cls-11{clip-path:url(#clip-path);}.cls-12{fill:#3c4999;}.cls-13{fill:#fed879;}.cls-14{fill:#73c4b9;}.cls-15{fill:#61827c;}.cls-16{clip-path:url(#clip-path-2);}.cls-17{fill:#e5a636;}.cls-18{fill:#00abc5;}</style><clipPath id="clip-path"><path class="cls-1" d="M375.461,221.408a33,33,0,1,0,33,33A33,33,0,0,0,375.461,221.408Zm0,55.921a22.921,22.921,0,1,1,22.92-22.921A22.921,22.921,0,0,1,375.461,277.329Z"/></clipPath><clipPath id="clip-path-2"><rect class="cls-1" x="541.983" y="222.064" width="164.17" height="123.83"/></clipPath></defs><path class="cls-2" d="M958.936,689.814c-1.773.306-11.935.08-13.515.106s-5.774.759-7.793-.266c-2.46-1.238-5.217-1.758-7.328-3.928-2.563-2.637-8.35-2.876-11.728-.892-.674.4-1.243.918-2.085.825a.911.911,0,0,1-.906-.759c-.026-.213.362-.586.635-.7,7.055-3.156,12.751-8.3,18.408-13.449,4.518-4.115,8.764-8.523,13.088-12.864a23.591,23.591,0,0,1,6.926-4.354c2.447-1.158,2.577-2.024.415-3.8-2.991-2.45-6.072-4.78-9.075-7.23-.531-.44-12.985-9.6-13.542-9.987a239.71,239.71,0,0,0-37.076-20.88c-.984-.452-2.007-.852-2.978-1.331-2.615-1.3-6.227-1.611-5.839-6.006a18.408,18.408,0,0,0-2.446-.719c-1.877-.253-2.421-1.118-1.735-3.009a17.823,17.823,0,0,0,.764-3.822,1.67,1.67,0,0,0-1.191-2.037,1.86,1.86,0,0,0-2.317,1.105,5.163,5.163,0,0,0-.609,1.438c-.492,2.89-1.243,5.207-4.868,3.289a1.723,1.723,0,0,0-2.252.733,1.634,1.634,0,0,0-.013,1.731c2.162,4.287,1.968,4.807-1.683,7.949a224.421,224.421,0,0,0-21.127,21.279C841.79,640.478,836.2,650,830.333,659.294c-1.838,2.929-3.353,6.072-4.907,9.161-.5,1-.8,2.8.816,2.477,2.395-.479,2.732,1.078,3.443,2.49,4.713,9.374,4.674,9.361-.608,18.722-.854,1.518-1.942,2.956-1.942,4.98q.024,8.994.032,17.991H831c0-1.924-.019-3.847-.055-5.767-.064-3.2,2.24-1.784,3.638-2.064,1.592-.319,2.654.16,2.447,2.171-.117,1.038.052,2.1-.039,3.156a3.116,3.116,0,0,0,.591,2.5h3.033a48.091,48.091,0,0,0,.208-5.447c.065-.786-.388-1.718.479-2.344a87.932,87.932,0,0,1,11.094-.026c4.519-.08,4.092-.893,4.208,4.141.026,1.212-.013,2.423-.026,3.622l.123.054h3.445c.031-2.038.081-4.07.018-6.1-.052-1.624.764-1.864,2.045-1.851,3.5.054,6.978.107,10.461.04,1.695-.026,2.55.493,2.33,2.4-.155,1.3-.078,2.623-.1,3.928l3.042-.08a21.833,21.833,0,0,0,.441-3.861c-.091-1.838.569-2.437,2.317-2.45,1.942-.027,2.006,1.092,1.916,2.516-.065.946-.1,1.9-.155,2.863.751,1.359,2.019.8,3.12.866.051-3.063.181-6.125.116-9.175-.052-2.13.673-2.9,2.822-2.876,17.3.133,34.591-.053,51.874.333,6.586.146,13.183.117,19.985.225V689.846A6.028,6.028,0,0,0,958.936,689.814Zm-20.972-25.886c-8.35,7.7-16.752,15.42-27.5,19.454-7.935,2.983-16.078,5.06-24.985,1.239,17.891-7.79,36.378-12.69,53-22.438A1.387,1.387,0,0,1,937.964,663.928ZM908.422,621.77a230.668,230.668,0,0,1,24.377,14.7c.349.253.751.427,1.074.706.761.662,12.144,9.668,16.208,13.036.855.706.725,1.252-.181,1.758-5.152,2.97-10.214,6.112-15.509,8.8-2.252,1.132-2.918-1.48-4.207-2.8-1.215-1.34-4.182-3.649-4.6-4.248-2.434-3.4-11.9-12.557-12.493-13.183q-12.466-12.943-24.92-25.886a32.207,32.207,0,0,1-2.188-2.77A134.587,134.587,0,0,1,908.422,621.77Zm-26.306-10.506c1.165-.467,1.89,1.424,2.6,2.4,6.887,9.428,15.872,16.752,23.743,25.181,1,1.065,2.02,2.13,3.081,3.142.794.745,3.655,3.788,4.156,4.315,2.149,2.223,4.311,4.447,6.446,6.684.324.333,8.351,7.59,8.7,8.7a.743.743,0,0,1-.285.893c-.414.346-9.113,4.261-11.651,4.42-2.343.134-8.579-3.8-9.321-4.42q-2.077-1.739-4.156-3.463c-.427-.346-5.954-6.644-6.874-7.776-7.7-9.574-12.441-20.746-16.519-32.291a14.354,14.354,0,0,1-.375-4.368C881.961,613.647,880.99,611.716,882.116,611.264Zm-3.91,14.274c.246.04.5.093.751.147.544,17.9-2.045,35.167-9.554,51.479-.284-.054-.582-.107-.88-.173Q873.377,651.265,878.206,625.538Zm-15.56,43.184c1.553-5.886,3.132-11.758,4.621-17.657.311-1.252.906-1.439,1.994-1.265,1.217.213,1.3,1.052,1.062,1.944-2.538,9.88-2.952,20.187-5.619,30.04-.479,1.758-.971,3.556-2.822,4.408a10.71,10.71,0,0,1-5.153,3.968c1.114-4.208,1.994-8.056,3.159-11.825.867-2.836,1.178-5.858,2.745-8.468C862.309,669.481,862.529,669.108,862.646,668.722Zm14.1-52.891a8.23,8.23,0,0,1,.79-1.132,67.234,67.234,0,0,1-1.864,11.864c-1.372,6.179-2.265,12.464-3.741,18.629-.3,1.239-.7,1.665-1.826,1.452-1.087-.2-1.631-.679-1.333-1.984A283.062,283.062,0,0,1,876.743,615.831Zm-47.174,53.423c-.427-.892.337-1.678.725-2.41,10.46-19.787,23.73-37.271,40.43-51.919.647-.572,1.268-1.158,1.9-1.731.129.094.259.187.388.293-12.506,22.291-25.024,44.568-37.789,67.325C833.22,676.738,831.356,673.022,829.569,669.254Zm2.705,24.581a8.347,8.347,0,0,1,1.4-2.636,17.4,17.4,0,0,0,1.76-3.183c.506,1.625.907,2.757,1.205,3.928,1.035,4.048.026,5.1-3.936,4.115C831.136,695.673,832.029,694.434,832.274,693.835Zm1.671,10.12c-1.476-.08-3.107.6-3.12-2.25-.026-3.249,1.98-2.211,3.547-2.4,1.748-.2,2.706.12,2.744,2.424C837.168,704.594,835.433,703.875,833.945,703.955Zm5.113-8.016a36.664,36.664,0,0,0-2.136-8.975,2.357,2.357,0,0,1,.3-2.17c10.823-19.388,21.257-39,32.766-57.978a4.962,4.962,0,0,0,.337-.692c.233.12.452.24.686.36-1.709,6-3.431,12.01-5.127,18.016q-6.816,24.247-13.58,48.523c-.622,2.264-1.424,3.529-4.065,3.209C845.208,695.859,842.126,696.019,839.058,695.939Zm17.451,6.591c.091.986-.349,1.425-1.333,1.359-4.052-.213-8.1.466-12.143,0-2.214.4-2.318-.919-2.369-2.7-.065-2.171,1.255-1.865,2.485-1.811,4.35.186,8.726-.493,13.049.346C856.729,700.613,856.419,701.585,856.509,702.53Zm-1.786-6.325c-.013-.239-.039-.479-.052-.719,2.058-.572,4.13-1.158,6.2-1.717.531-.147,1.269-.506,1.256.546-.013.692.375,1.8-.79,1.864C859.137,696.285,856.923,696.205,854.723,696.205Zm18.448,3.09c1.825-.067,1.838.985,1.838,2.3s.078,2.477-1.774,2.357-3.728-.013-5.605-.013c-1.618-.013-3.224-.067-4.842,0-1.592.08-2.731.04-2.68-2.25.052-2.1.855-2.451,2.615-2.4m13.865-8.935a8.8,8.8,0,0,0-.129,1.025c-1.036,5.113-1.036,5.113-6.214,5.14a14.61,14.61,0,0,1-2.537-.027c-.958-.159-2.641.773-2.68-.918-.039-1.452-.091-3.343,2.11-3.929,2.692-.719,5.308-1.731,7.961-2.623C876.316,688.629,877.235,688.536,876.588,690.36Zm.686-5.287c-3.663,1.4-7,3.556-10.8,4.594-.246.067-.466.28-.712.28-.971-.013-2.279,1-2.836.013-.595-1.052.92-1.451,1.541-2.037,7.586-7.044,11.107-16.3,13.541-26.139a141.4,141.4,0,0,0,2.641-14.328,119.794,119.794,0,0,0,.984-17.231c0-.679.078-1.345.155-2.716,5.658,12.41,11.237,24,20.636,33.077a46.233,46.233,0,0,0,10.538,7.683c.686.373,1.488.8,1.463,1.531-.026.679-1,.852-1.606,1.119C901.159,676.125,889.185,680.533,877.274,685.073Zm5.295,16.685c-.052,1.318.013,2.317-1.851,2.237-1.735-.066-2.6-.479-2.188-2.37-.311-1.7.3-2.4,2.033-2.37C882.362,699.281,882.634,700.214,882.569,701.758Zm51.525-3.342c-14.358,0-28.714.026-43.071,0-1.489-.013-3.056.413-4.454-.506-.8-1.239-1.734-1.931-3.34-1.385a9.167,9.167,0,0,1-2.783.12c-1.527.013-2.2-.466-1.631-2.237a16.8,16.8,0,0,0,.362-3.635c.259-2.877,2.163-4.381,4.726-3.356,7.676,3.1,15.379,2.037,23.082.346,2.809-.612,5.515-1.771,7.975.932.763.839,1.864.413,2.861-.066a21.8,21.8,0,0,1,4.634-2.091,6.71,6.71,0,0,1,7.328,2.8,3.79,3.79,0,0,0,2.809,1.718c2.123.306,4.207.906,4.66,3.6C937.835,698.442,937.835,698.416,934.094,698.416Zm22.81-3.289c-1.088,3.848-1.074,3.782-5.036,3.675-3.055-.08-6.11.013-9.166.067-1.825.026-3.081-.4-2.433-2.717a1.837,1.837,0,0,0-.065-1.265c-1.735-3,.427-2.517,2.084-2.517h15.82A24.144,24.144,0,0,0,956.9,695.127Z"/><path class="cls-3" d="M165.464,281.386V225.733h11.763v55.653Z"/><path class="cls-3" d="M205.983,282.34a38.118,38.118,0,0,1-11.691-1.789,26.351,26.351,0,0,1-9-4.651l3.994-9.7a28.194,28.194,0,0,0,7.734,4.174,26.184,26.184,0,0,0,9.041,1.63,17.285,17.285,0,0,0,5.627-.755,6.54,6.54,0,0,0,3.159-2.107,5.027,5.027,0,0,0,1.017-3.1,4.343,4.343,0,0,0-1.6-3.538,12.666,12.666,0,0,0-4.212-2.147q-2.614-.834-5.774-1.59a62.811,62.811,0,0,1-6.317-1.868,25.658,25.658,0,0,1-5.774-2.862,13.511,13.511,0,0,1-4.248-4.611,14.624,14.624,0,0,1-1.634-7.315,16.106,16.106,0,0,1,9.477-14.986,26.935,26.935,0,0,1,11.945-2.346,36.666,36.666,0,0,1,9.441,1.233,25.994,25.994,0,0,1,8.206,3.7l-3.631,9.779a29.59,29.59,0,0,0-7.116-3.3,24.1,24.1,0,0,0-6.972-1.073,15.2,15.2,0,0,0-5.592.874,6.612,6.612,0,0,0-3.122,2.266,5.586,5.586,0,0,0-.944,3.22,4.255,4.255,0,0,0,1.6,3.459,12.127,12.127,0,0,0,4.212,2.107q2.613.8,5.773,1.589t6.317,1.829a23.418,23.418,0,0,1,5.773,2.783,13.491,13.491,0,0,1,4.248,4.611,14.434,14.434,0,0,1,1.635,7.235,16.061,16.061,0,0,1-2.4,8.586A17.131,17.131,0,0,1,218,279.955,26.746,26.746,0,0,1,205.983,282.34Z"/><path class="cls-3" d="M235.611,281.386V225.733h9.732l29.99,40.07h-4.72v-40.07h11.619v55.653h-9.658l-30.063-40.07h4.719v40.07Z"/><path class="cls-3" d="M318.614,282.34a28.1,28.1,0,0,1-10.93-2.107,25.428,25.428,0,0,1-8.75-6,28.05,28.05,0,0,1-5.773-9.143,33.135,33.135,0,0,1,0-23.056,27.711,27.711,0,0,1,5.81-9.143,25.929,25.929,0,0,1,8.751-6,29.662,29.662,0,0,1,22.91.4,23.587,23.587,0,0,1,8.968,7.354l-7.552,7.632a17.978,17.978,0,0,0-5.809-4.889,15.133,15.133,0,0,0-6.973-1.63,16.48,16.48,0,0,0-6.535,1.272,14.773,14.773,0,0,0-5.156,3.657,16.931,16.931,0,0,0-3.376,5.645,22.443,22.443,0,0,0,0,14.469,16.911,16.911,0,0,0,3.376,5.645,14.75,14.75,0,0,0,5.156,3.658,16.462,16.462,0,0,0,6.535,1.272,15.121,15.121,0,0,0,6.973-1.63,17.6,17.6,0,0,0,5.809-4.969L339.6,272.4a23.925,23.925,0,0,1-8.968,7.394A27.592,27.592,0,0,1,318.614,282.34Z"/><path class="cls-3" d="M415.774,281.386V225.733h9.732L455.5,265.8h-4.721v-40.07H462.4v55.653h-9.658l-30.063-40.07h4.719v40.07Z"/><path class="cls-4" d="M329.625,326.01,327.342,330v12.779h-8.2V298.49h8.2v16.955l2.107-4.934,5.737-12.021h9.486L334.25,317.849l12.178,24.925H337.06Z"/><path class="cls-4" d="M350.875,328.414V312.851c0-9.49,4.976-15.12,13.29-15.12s13.291,5.63,13.291,15.12v15.563c0,9.489-4.977,15.119-13.291,15.119S350.875,337.9,350.875,328.414Zm17.974,0V312.851c0-4.175-1.581-6.389-4.684-6.389s-4.684,2.214-4.684,6.389v15.563c0,4.175,1.581,6.39,4.684,6.39S368.849,332.589,368.849,328.414Z"/><path class="cls-4" d="M385.3,329.236V312.028c0-9.362,4.683-14.424,12.7-14.424,8.2,0,12.763,5.062,13.055,14.424h-8.313c-.234-4.049-1.64-5.693-4.8-5.693-2.517,0-3.981,1.771-3.981,5.693v17.208c0,3.8,1.4,5.568,3.981,5.568,3.22,0,4.684-1.646,4.918-5.568h8.314c-.176,9.3-4.918,14.3-13.232,14.3C389.981,343.533,385.3,338.536,385.3,329.236Z"/><path class="cls-4" d="M444.077,298.49v44.284h-8.372v-18.03h-8.432v18.03H418.9V298.49h8.372V316.2h8.432V298.49Z"/><path class="cls-4" d="M462.574,298.49v44.284h-8.313V298.49Z"/><path class="cls-5" d="M281.536,308.579v1.7c0,3.457-1.584,5.185-4.152,5.185-2.544,0-4.129-1.68-4.225-4.536h2.353c.072,1.608.7,2.28,1.872,2.28,1.152,0,1.8-.72,1.8-2.9v-1.752c0-1.825-.551-2.544-1.751-2.544a1.775,1.775,0,0,0-1.848,1.607H273.3V298.4h7.7v2.089h-5.376v3.985a3.509,3.509,0,0,1,2.112-.673C280,303.8,281.536,305.507,281.536,308.579Z"/><path class="cls-5" d="M292.072,308.579v1.7c0,3.457-1.584,5.185-4.152,5.185-2.544,0-4.129-1.68-4.225-4.536h2.353c.072,1.608.7,2.28,1.872,2.28,1.152,0,1.8-.72,1.8-2.9v-1.752c0-1.825-.552-2.544-1.752-2.544a1.775,1.775,0,0,0-1.848,1.607h-2.28V298.4h7.7v2.089h-5.376v3.985a3.511,3.511,0,0,1,2.112-.673C290.536,303.8,292.072,305.507,292.072,308.579Z"/><path class="cls-5" d="M297.174,306.022V307.3h-.518a2.212,2.212,0,0,1-2.336-2.463v-3.764h-1.036v-1.231h1.036v-1.75h1.343v1.75h1.371v1.231h-1.371v3.779c0,.8.336,1.174,1.063,1.174Z"/><path class="cls-5" d="M303.484,302.721v4.491h-1.356v-4.449c0-1.316-.351-1.82-1.036-1.82-.77,0-1.259.616-1.259,1.707v4.562h-1.358v-10.1h1.358v3.443a1.89,1.89,0,0,1,1.623-.9C302.743,299.656,303.484,300.636,303.484,302.721Z"/><path class="cls-6" d="M496.108,342.507H474.869V335.08a9.239,9.239,0,0,1,1.335-4.972,9.036,9.036,0,0,1,3.732-3.348,13.487,13.487,0,0,1,11.105,0,9.012,9.012,0,0,1,3.732,3.348,9.23,9.23,0,0,1,1.335,4.972Zm-2.639-2.518v-4.758a7,7,0,0,0-1-3.789,6.7,6.7,0,0,0-2.807-2.479,10.354,10.354,0,0,0-8.359,0,6.7,6.7,0,0,0-2.791,2.479,6.99,6.99,0,0,0-1,3.789v4.758Z"/><path class="cls-6" d="M496.29,316.124a6.719,6.719,0,0,1-1.062,3.764,7.053,7.053,0,0,1-2.913,2.517,9.645,9.645,0,0,1-4.247.894,9.9,9.9,0,0,1-4.248-.868,7.059,7.059,0,0,1-2.9-2.392,5.919,5.919,0,0,1-1.047-3.436,5.86,5.86,0,0,1,1.031-3.424,6.87,6.87,0,0,1,2.9-2.329,10.491,10.491,0,0,1,4.354-.843c.121,0,.263,0,.425.013s.313.02.455.037v11.354h-2.094v-10.1l.729.983a6.33,6.33,0,0,0-2.762.528,4.583,4.583,0,0,0-1.9,1.524,4.036,4.036,0,0,0,0,4.493,4.527,4.527,0,0,0,1.912,1.536,6.766,6.766,0,0,0,2.806.554h.486a6.409,6.409,0,0,0,2.867-.618,4.577,4.577,0,0,0,2.655-4.266,4.735,4.735,0,0,0-.486-2.153,4.836,4.836,0,0,0-1.456-1.7l1.881-1.335a6.017,6.017,0,0,1,1.942,2.254A6.682,6.682,0,0,1,496.29,316.124Z"/><path class="cls-6" d="M496.29,300.843a6.421,6.421,0,0,1-1.062,3.637,7.2,7.2,0,0,1-2.913,2.5,10.4,10.4,0,0,1-8.5,0,7.1,7.1,0,0,1-2.9-2.5,6.48,6.48,0,0,1-1.047-3.637,6.11,6.11,0,0,1,.864-3.235,5.671,5.671,0,0,1,2.565-2.2l1.425,1.838a4.484,4.484,0,0,0-1.745,1.6,3.9,3.9,0,0,0-.56,2.026,4.082,4.082,0,0,0,.7,2.341,4.828,4.828,0,0,0,1.957,1.637,6.862,6.862,0,0,0,2.989.6,6.951,6.951,0,0,0,3-.6,4.8,4.8,0,0,0,1.973-1.637,4.076,4.076,0,0,0,.7-2.341,3.9,3.9,0,0,0-.561-2.026,4.48,4.48,0,0,0-1.746-1.6l1.4-1.838a5.878,5.878,0,0,1,2.564,2.2A5.946,5.946,0,0,1,496.29,300.843Z"/><path class="cls-6" d="M496.108,283.623H476.083l1.426-1.083V287.6h-2.64V281.13h21.239Z"/><path class="cls-6" d="M496.108,274.233l-19.965-7.477,1.366-.655v10.473l-1.487-1.259h5.28v2.417h-6.433V264.439h2.064l19.175,7.125Z"/><path class="cls-6" d="M489.039,263.256H486.52v-6.772h2.519Z"/><path class="cls-6" d="M496.108,254.444h-2.063L485.7,247.27a11.749,11.749,0,0,0-1.927-1.423,5.945,5.945,0,0,0-1.547-.629,6.165,6.165,0,0,0-1.38-.164,3.454,3.454,0,0,0-2.58.957,3.831,3.831,0,0,0-.94,2.794,5.649,5.649,0,0,0,.562,2.543,5.259,5.259,0,0,0,1.744,1.964l-1.79,1.711a6.656,6.656,0,0,1-2.382-2.706,8.369,8.369,0,0,1-.834-3.738,6.789,6.789,0,0,1,.713-3.2,5.025,5.025,0,0,1,2.048-2.1,6.4,6.4,0,0,1,3.155-.742,9.187,9.187,0,0,1,2.033.226,8.009,8.009,0,0,1,2.124.856,16.579,16.579,0,0,1,2.519,1.813l7.433,6.394-1.183.605v-10.65h2.639Z"/><path class="cls-6" d="M496.351,232.542a5.811,5.811,0,0,1-1.274,3.688,8.461,8.461,0,0,1-3.7,2.568,18.825,18.825,0,0,1-11.773,0,8.463,8.463,0,0,1-3.7-2.568,5.956,5.956,0,0,1,0-7.363,8.335,8.335,0,0,1,3.7-2.568,19.056,19.056,0,0,1,11.773,0,8.332,8.332,0,0,1,3.7,2.568A5.827,5.827,0,0,1,496.351,232.542Zm-2.7,0a3.579,3.579,0,0,0-.91-2.429,5.972,5.972,0,0,0-2.73-1.636,17.559,17.559,0,0,0-9.042,0,5.987,5.987,0,0,0-2.731,1.636,3.589,3.589,0,0,0-.91,2.429,3.636,3.636,0,0,0,.91,2.442,5.923,5.923,0,0,0,2.731,1.649,17.559,17.559,0,0,0,9.042,0,5.909,5.909,0,0,0,2.73-1.649A3.626,3.626,0,0,0,493.65,232.542Z"/><rect class="cls-7" x="311.106" y="295.213" width="1.374" height="47.515"/><path class="cls-8" d="M386.527,272.153l.09.1c-.021,0-.05,0-.061-.016a.266.266,0,0,1-.032-.077Z"/><polygon class="cls-9" points="363.011 248.4 362.978 248.377 363.002 248.398 363.011 248.4"/><path class="cls-10" d="M370.146,250.892a4.345,4.345,0,0,1-1.14-1.82,7.312,7.312,0,0,1-.333-2.194,4.5,4.5,0,0,0,.848,4.513,35.756,35.756,0,0,0,3.2,3.465c2.8,2.9,3.012,6.135,1.487,9.625a25.5,25.5,0,0,1-3.563,5.269,21.667,21.667,0,0,0-2.712,4.178c-.044.1-.1.192-.242.179a5.843,5.843,0,0,1,.842-2.689c.921-1.857,2.274-3.455,3.37-5.207a11.386,11.386,0,0,0,1.8-6.544c-.043-1.327-1.253-3.039-2.933-2.86a3.2,3.2,0,0,0-2.517,2.01,7.842,7.842,0,0,1,1.856-1,1.928,1.928,0,0,1,2.1.608,2.218,2.218,0,0,1,.04,2.5,5.563,5.563,0,0,1-8.207,2.109,12.12,12.12,0,0,1-5.277-7.2,13.285,13.285,0,0,1,2.96-13.236c2.779-3.121,6.513-2.815,9.448-.417,1.33,1.086,1.207,2.55.7,3.988C371.33,247.718,370.317,249.1,370.146,250.892Zm-6.291.322-.019-.016.026.017c.286,2.319,1.052,3.33,4.291,4.149a3.4,3.4,0,0,0-1.361,4.165c.305-.275.2-.659.3-.978a4.369,4.369,0,0,1,2.733-2.7c1.337-.537,1.339-.6.352-1.581a11.06,11.06,0,0,1-2.429-3.586,11.43,11.43,0,0,1-.688-3.1c-1.142,2.615.008,4.751,1.74,6.817a4.476,4.476,0,0,1-3.354-1.25C364.865,252.55,364.383,251.861,363.855,251.214Z"/><path class="cls-8" d="M381.564,268.365a3.64,3.64,0,0,1-2.159-1.507,9.949,9.949,0,0,1-2.318-7.468,9.238,9.238,0,0,1,2.838-5.041,34.9,34.9,0,0,0,2.654-2.958,4.822,4.822,0,0,0,.931-4.49,7.55,7.55,0,0,1-1.558,4.178,9.889,9.889,0,0,0-1.363-4.114c-1.384-2.891-.471-5.013,2.646-6.146,3.326-1.209,6.079-.028,8.1,2.812a13.826,13.826,0,0,1-.432,16.939,8.881,8.881,0,0,1-5.085,3.388c-2.68.6-5.905-1.508-6.251-4.1a1.786,1.786,0,0,1,.793-1.82,2.169,2.169,0,0,1,2.061-.083,9.712,9.712,0,0,1,1.067.554,2.547,2.547,0,0,0-2.448-1.689,2.638,2.638,0,0,0-2.352,1.606c-.653,1.6-.17,3.15.188,4.7a12.64,12.64,0,0,0,2.687,5.232Zm1.986-13.921a22.491,22.491,0,0,0,1.9-3.356,5.352,5.352,0,0,0-.273-3.555,9.4,9.4,0,0,1-1.9,5.277,20.843,20.843,0,0,1-1.621,1.917c-.476.488-.318.691.237.9a11.807,11.807,0,0,1,1.191.556,3.735,3.735,0,0,1,2.028,2.392,1.824,1.824,0,0,0,.379.91c.652-1.745-.06-3.026-1.418-4.128,3.011-.653,4.1-1.855,4.267-4.166C387.194,252.974,385.892,254.342,383.55,254.444Z"/><path class="cls-8" d="M378.406,253.175a2.345,2.345,0,0,1-2.4,2.342,2.357,2.357,0,1,1,.052-4.712A2.342,2.342,0,0,1,378.406,253.175Z"/><path class="cls-9" d="M363.855,251.213c.528.648,1.01,1.337,1.595,1.934a4.476,4.476,0,0,0,3.354,1.25c-1.732-2.066-2.882-4.2-1.74-6.817a11.43,11.43,0,0,0,.688,3.1,11.06,11.06,0,0,0,2.429,3.586c.987.983.985,1.044-.352,1.581a4.369,4.369,0,0,0-2.733,2.7c-.108.319,0,.7-.3.978a3.4,3.4,0,0,1,1.361-4.165c-3.239-.819-4-1.83-4.291-4.149Z"/><path class="cls-9" d="M383.55,254.444c2.342-.1,3.644-1.47,4.786-3.258-.17,2.311-1.256,3.513-4.267,4.166,1.358,1.1,2.07,2.383,1.418,4.128a1.824,1.824,0,0,1-.379-.91,3.735,3.735,0,0,0-2.028-2.392,11.807,11.807,0,0,0-1.191-.556c-.555-.2-.713-.407-.237-.9a20.843,20.843,0,0,0,1.621-1.917,9.4,9.4,0,0,0,1.9-5.277,5.352,5.352,0,0,1,.273,3.555A22.491,22.491,0,0,1,383.55,254.444Z"/><g class="cls-11"><path class="cls-12" d="M358.24,239.419c-1.433-2.059-2.856-4.1-4.27-6.143a1.146,1.146,0,0,1,.239-1.654,32.054,32.054,0,0,1,7.648-5.292,1.406,1.406,0,0,1,1.451.094,48.088,48.088,0,0,1,14.952,13.862.868.868,0,0,1,.014,1.071,8.705,8.705,0,0,0,.864,10.061,5,5,0,0,1-.746,7.012,1.021,1.021,0,0,1-.927.129c-1.269-.165-2.54-.326-3.8-.556a3.556,3.556,0,0,1-2.827-4.77,6.923,6.923,0,0,1,1.235-2.181,8.979,8.979,0,0,0-5.6-14.168,9.691,9.691,0,0,0-7.264,1.822C358.877,238.932,358.563,239.18,358.24,239.419Z"/><path class="cls-13" d="M406.463,258.4a29.906,29.906,0,0,1-3.283,10.458,30.993,30.993,0,0,1-18.487,15.389c-.279.089-.555.187-.837.261a1.138,1.138,0,0,1-1.288-.363,1.1,1.1,0,0,1-.026-1.332q.96-1.664,1.9-3.339c1.253-2.237,2.306-4.571,3.331-6.918a1.454,1.454,0,0,1,.909-.994,12.1,12.1,0,0,0,8.035-8.243c.816-2.534,2.009-4.021,4.6-4.574a19.513,19.513,0,0,0,3.425-1.45C405.756,256.859,406.486,257.355,406.463,258.4Z"/><path class="cls-4" d="M364.183,272.064a72.757,72.757,0,0,1-11.166,2.578,1.808,1.808,0,0,1-1.89-.771,31.246,31.246,0,0,1-6.377-24.56c.195-1.315,1.089-1.68,2.075-.819a58.6,58.6,0,0,0,5.291,4.276c.5.343.449.8.435,1.264a22.42,22.42,0,0,0,.807,6.956C354.956,266.458,357.824,270.762,364.183,272.064Z"/><path class="cls-14" d="M375.5,223.17a31.837,31.837,0,0,1,13.066,2.859,1.608,1.608,0,0,1,1.036,1.286,92.465,92.465,0,0,1,1.038,9.807c.05.692-.141.81-.789.531a8.74,8.74,0,0,0-8.121.222c-.476.266-.687.109-.963-.275a51.048,51.048,0,0,0-11.485-11.551c-.484-.352-.954-.732-.8-1.433.156-.729.788-.793,1.358-.9A29.008,29.008,0,0,1,375.5,223.17Z"/><path class="cls-14" d="M374.843,285.639c-.109-.006-.219-.009-.329-.018-3.12-.253-2.665-.166-2.8-2.777a89.379,89.379,0,0,0-1.349-11.761,1.144,1.144,0,0,1,.374-1.239,8.631,8.631,0,0,0,3.04-7.223c-.049-.733.1-.912.9-.772,2.2.384,2.189.333,2.535,2.439a8.66,8.66,0,0,0,6.041,7.276c.823.284.79.6.5,1.239a83.6,83.6,0,0,1-6.787,12.046C376.446,285.607,376.2,285.678,374.843,285.639Z"/><path class="cls-4" d="M398.387,253.646a20.651,20.651,0,0,0-3.865-12.233,1.266,1.266,0,0,1-.259-.814,73.44,73.44,0,0,0-.417-8.983,1.117,1.117,0,0,1,.649-1.268c.62-.28,1.047.092,1.466.455a30.748,30.748,0,0,1,8.313,11.438,30,30,0,0,1,2.275,8.888,1.381,1.381,0,0,1-.728,1.542,48.363,48.363,0,0,1-6.759,3.12c-.584.22-.706.041-.681-.5S398.387,254.194,398.387,253.646Z"/><path class="cls-12" d="M368,281.248c.11,3.3-.141,3.48-2.548,2.685a30.638,30.638,0,0,1-8.142-4.179c-.486-.345-.848-.713-.716-1.344s.64-.8,1.215-.912a77.848,77.848,0,0,0,7.72-2.007c1.479-.46,1.913-.151,2.056,1.4C367.737,278.6,367.906,280.311,368,281.248Z"/><path class="cls-13" d="M353.047,248.943a43.076,43.076,0,0,1-6.033-5.4,1.3,1.3,0,0,1-.129-1.534,32.782,32.782,0,0,1,2.842-5.178c.8-1.162,1.474-1.205,2.294-.06,1.19,1.662,2.291,3.387,3.42,5.091a.659.659,0,0,1,.1.8A20.95,20.95,0,0,0,353.047,248.943Z"/></g><path class="cls-6" d="M534.168,342.036h-5.587l-11.038-11.379a12.584,12.584,0,0,0-2.073-1.8,5.85,5.85,0,0,0-1.645-.782,5.435,5.435,0,0,0-1.374-.195,3.012,3.012,0,0,0-2.388.977,4.347,4.347,0,0,0-.856,2.932,6.441,6.441,0,0,0,.767,3.084,6.019,6.019,0,0,0,2.3,2.345l-3.695,6.385a12.566,12.566,0,0,1-4.775-4.909A15.47,15.47,0,0,1,502,331a15.152,15.152,0,0,1,1.172-6.167,9.662,9.662,0,0,1,3.334-4.148,8.714,8.714,0,0,1,5.092-1.5,12.065,12.065,0,0,1,3.041.391,10.934,10.934,0,0,1,3.2,1.5,22.436,22.436,0,0,1,3.763,3.279l8.65,9.034-3.153,1.433v-16.46h7.073Z"/><path class="cls-6" d="M534.8,300.255a12.542,12.542,0,0,1-1.938,6.928,13.151,13.151,0,0,1-5.587,4.755,23.534,23.534,0,0,1-17.752,0,13.163,13.163,0,0,1-5.587-4.755,13.278,13.278,0,0,1,0-13.811,13.158,13.158,0,0,1,5.587-4.756,23.534,23.534,0,0,1,17.752,0,13.146,13.146,0,0,1,5.587,4.756A12.462,12.462,0,0,1,534.8,300.255Zm-7.3,0a3.687,3.687,0,0,0-.9-2.454,6,6,0,0,0-2.907-1.672,23.448,23.448,0,0,0-10.61,0A6,6,0,0,0,510.2,297.8a3.8,3.8,0,0,0,0,4.908,6.121,6.121,0,0,0,2.884,1.694,22.651,22.651,0,0,0,10.61,0,6.122,6.122,0,0,0,2.907-1.694A3.681,3.681,0,0,0,527.5,300.255Z"/><path class="cls-6" d="M534.168,282.23h-5.587l-11.038-11.379a12.523,12.523,0,0,0-2.073-1.8,5.8,5.8,0,0,0-1.645-.782,5.435,5.435,0,0,0-1.374-.195,3.009,3.009,0,0,0-2.388.977,4.342,4.342,0,0,0-.856,2.931,6.441,6.441,0,0,0,.767,3.084,6.013,6.013,0,0,0,2.3,2.345l-3.695,6.385a12.57,12.57,0,0,1-4.775-4.908A15.473,15.473,0,0,1,502,271.2a15.157,15.157,0,0,1,1.172-6.168,9.665,9.665,0,0,1,3.334-4.147,8.715,8.715,0,0,1,5.092-1.5,12.11,12.11,0,0,1,3.041.391,10.934,10.934,0,0,1,3.2,1.5,22.448,22.448,0,0,1,3.763,3.28l8.65,9.033-3.153,1.434V258.56h7.073Z"/><path class="cls-6" d="M534.8,239.8a14.956,14.956,0,0,1-1.757,7.405,12.024,12.024,0,0,1-5.227,4.907,18.79,18.79,0,0,1-8.56,1.76,19.585,19.585,0,0,1-9.35-2.063,14.291,14.291,0,0,1-5.879-5.69,16.929,16.929,0,0,1-2.028-8.4,19.751,19.751,0,0,1,.608-4.929,13.4,13.4,0,0,1,1.69-4.018l6.4,3.127a7.648,7.648,0,0,0-1.284,2.714,12.339,12.339,0,0,0-.338,2.889,7.409,7.409,0,0,0,2.208,5.624q2.208,2.108,6.443,2.107.765,0,1.6-.022a13.461,13.461,0,0,0,1.69-.152l-1.847,2.172a9.948,9.948,0,0,1-2.794-2.107,8.338,8.338,0,0,1-1.712-2.953,11.837,11.837,0,0,1-.586-3.844,11.116,11.116,0,0,1,1.239-5.234,9.917,9.917,0,0,1,3.469-3.8,9.5,9.5,0,0,1,5.249-1.433,10.035,10.035,0,0,1,5.7,1.607,10.819,10.819,0,0,1,3.74,4.3A13.467,13.467,0,0,1,534.8,239.8Zm-6.353.521a4.514,4.514,0,0,0-.5-2.15,3.59,3.59,0,0,0-1.4-1.455,4.163,4.163,0,0,0-2.119-.521,3.768,3.768,0,0,0-2.882,1.151,4.229,4.229,0,0,0-1.082,3.018,4.619,4.619,0,0,0,.5,2.194,3.741,3.741,0,0,0,1.4,1.476,4.019,4.019,0,0,0,2.118.543,3.945,3.945,0,0,0,2.05-.521,3.749,3.749,0,0,0,1.4-1.477A4.669,4.669,0,0,0,528.446,240.319Z"/><path class="cls-15" d="M632.066,302.731c-.69.37-1.4.72-2.12,1.04.17-.1.32-.18.43-.24A14.513,14.513,0,0,1,632.066,302.731Z"/><path class="cls-5" d="M215.822,327.631h-2.063L213.4,329.2H212.22l1.963-7.807H215.4l1.963,7.807H216.19Zm-.234-1.049-.49-2.1c-.112-.513-.235-1.26-.29-1.673h-.034c-.056.413-.168,1.16-.29,1.673l-.48,2.1Z"/><path class="cls-5" d="M222.2,325.511V329.2H221.12v-3.637c0-.959-.257-1.36-.826-1.36-.613,0-1,.491-1,1.36V329.2h-1.082v-5.878h.77l.112.658a1.615,1.615,0,0,1,1.461-.8C221.565,323.18,222.2,323.9,222.2,325.511Z"/><path class="cls-5" d="M227.544,325.511V329.2h-1.081v-3.637c0-.959-.257-1.36-.826-1.36-.614,0-1,.491-1,1.36V329.2h-1.082v-5.878h.77l.112.658a1.612,1.612,0,0,1,1.46-.8C226.908,323.18,227.544,323.9,227.544,325.511Z"/><path class="cls-5" d="M232.83,323.325V329.2h-.77l-.111-.658a1.615,1.615,0,0,1-1.461.8c-1.015,0-1.651-.725-1.651-2.331v-3.692h1.082v3.636c0,.959.257,1.361.826,1.361.613,0,1-.491,1-1.361v-3.636Z"/><path class="cls-5" d="M238.006,325.3v3.9h-.881l-.078-.547a1.442,1.442,0,0,1-1.306.692,1.707,1.707,0,0,1-1.807-1.818c0-1.2.837-1.818,2.131-1.818h.859V325.3c0-.692-.257-1.082-.848-1.082a.823.823,0,0,0-.893.781H234.1a1.826,1.826,0,0,1,2-1.818C237.359,323.18,238.006,323.949,238.006,325.3Zm-1.082,1.349h-.859c-.658,0-1.038.3-1.038.882a.827.827,0,0,0,.938.859.89.89,0,0,0,.959-.937Z"/><path class="cls-5" d="M239.389,321.128h1.082V329.2h-1.082Z"/><path class="cls-5" d="M244.273,326.9v-3.212a2.155,2.155,0,0,1,2.253-2.443,2.195,2.195,0,0,1,2.321,2.4h-1.116c-.067-.915-.468-1.327-1.215-1.327-.659,0-1.093.435-1.093,1.372V326.9c0,.926.434,1.362,1.115,1.362.758,0,1.16-.424,1.238-1.317h1.115a2.211,2.211,0,0,1-2.353,2.387A2.159,2.159,0,0,1,244.273,326.9Z"/><path class="cls-5" d="M249.827,327.106v-1.695a2.075,2.075,0,1,1,4.139,0v1.695a2.075,2.075,0,1,1-4.139,0Zm3.046,0v-1.695c0-.826-.368-1.182-.982-1.182s-.97.356-.97,1.182v1.695c0,.826.368,1.182.97,1.182S252.873,327.932,252.873,327.106Z"/><path class="cls-5" d="M259.229,325.511V329.2h-1.081v-3.637c0-.959-.257-1.36-.826-1.36-.613,0-1,.491-1,1.36V329.2h-1.082v-5.878h.771l.111.658a1.615,1.615,0,0,1,1.461-.8C258.594,323.18,259.229,323.9,259.229,325.511Z"/><path class="cls-5" d="M261.984,323v.324h1.138v.982h-1.138v4.9h-1.071v-4.9h-.858v-.982h.858V323a1.807,1.807,0,0,1,1.975-2.029h.345v.981h-.345C262.274,321.953,261.984,322.266,261.984,323Z"/><path class="cls-5" d="M268.085,327.362a1.965,1.965,0,0,1-2.142,1.964,1.94,1.94,0,0,1-2-2.209v-1.751a1.929,1.929,0,0,1,2.008-2.186,1.95,1.95,0,0,1,2.053,2.186v1.305h-2.979v.446c0,.8.346,1.171.938,1.171.658,0,.936-.29,1.037-.926Zm-3.057-2.008v.5h1.907v-.5c0-.8-.356-1.159-.969-1.159C265.374,324.2,265.028,324.552,265.028,325.354Z"/><path class="cls-5" d="M272.266,323.28v1.071a1.786,1.786,0,0,0-.724-.134c-.736,0-1.2.48-1.2,1.361V329.2h-1.082v-5.878h.77l.122.68a1.876,1.876,0,0,1,2.119-.725Z"/><path class="cls-5" d="M277.119,327.362a1.965,1.965,0,0,1-2.142,1.964,1.94,1.94,0,0,1-2-2.209v-1.751a1.929,1.929,0,0,1,2.008-2.186,1.95,1.95,0,0,1,2.053,2.186v1.305h-2.979v.446c0,.8.346,1.171.938,1.171.658,0,.936-.29,1.037-.926Zm-3.057-2.008v.5h1.908v-.5c0-.8-.357-1.159-.97-1.159C274.408,324.2,274.062,324.552,274.062,325.354Z"/><path class="cls-5" d="M282.282,325.511V329.2H281.2v-3.637c0-.959-.257-1.36-.826-1.36-.613,0-1,.491-1,1.36V329.2h-1.082v-5.878h.77l.112.658a1.615,1.615,0,0,1,1.461-.8C281.646,323.18,282.282,323.9,282.282,325.511Z"/><path class="cls-5" d="M283.5,327.173v-1.852a1.9,1.9,0,0,1,1.986-2.141,1.938,1.938,0,0,1,2.041,2.141h-1.093c-.022-.747-.346-1.1-.937-1.1-.569,0-.9.357-.9,1.1v1.852c0,.747.334,1.115.9,1.115.6,0,.937-.368.971-1.115h1.082a1.964,1.964,0,0,1-2.064,2.153A1.9,1.9,0,0,1,283.5,327.173Z"/><path class="cls-5" d="M292.621,327.362a1.965,1.965,0,0,1-2.142,1.964,1.94,1.94,0,0,1-2-2.209v-1.751a1.929,1.929,0,0,1,2.008-2.186,1.95,1.95,0,0,1,2.053,2.186v1.305h-2.979v.446c0,.8.346,1.171.938,1.171.658,0,.936-.29,1.037-.926Zm-3.057-2.008v.5h1.908v-.5c0-.8-.357-1.159-.97-1.159C289.91,324.2,289.564,324.552,289.564,325.354Z"/><path class="cls-5" d="M296.167,327.106v-1.695a2.075,2.075,0,1,1,4.139,0v1.695a2.075,2.075,0,1,1-4.139,0Zm3.046,0v-1.695c0-.826-.368-1.182-.983-1.182s-.969.356-.969,1.182v1.695c0,.826.368,1.182.969,1.182S299.213,327.932,299.213,327.106Z"/><path class="cls-5" d="M302.927,323v.324h1.137v.982h-1.137v4.9h-1.072v-4.9H301v-.982h.858V323a1.807,1.807,0,0,1,1.975-2.029h.346v.981h-.346C303.217,321.953,302.927,322.266,302.927,323Z"/><path class="cls-5" d="M168.1,334.927h-1.628v6.737h-1.15v-6.737H163.7v-1.071H168.1Z"/><path class="cls-5" d="M172.661,338.084v3.58h-1.082v-3.547c0-1.049-.279-1.45-.826-1.45-.613,0-1,.491-1,1.36v3.637h-1.082V333.61h1.082v2.744a1.51,1.51,0,0,1,1.294-.713C172.069,335.641,172.661,336.422,172.661,338.084Z"/><path class="cls-5" d="M178.014,339.823a1.965,1.965,0,0,1-2.142,1.964,1.94,1.94,0,0,1-2-2.209v-1.751a1.929,1.929,0,0,1,2.008-2.186,1.95,1.95,0,0,1,2.052,2.186v1.305h-2.978v.446c0,.8.346,1.171.937,1.171.659,0,.937-.29,1.038-.926Zm-3.057-2.008v.5h1.907v-.5c0-.8-.356-1.159-.97-1.159C175.3,336.656,174.957,337.013,174.957,337.815Z"/><path class="cls-5" d="M182.954,333.856v7.808h-1.126v-7.808Z"/><path class="cls-5" d="M188.475,337.972v3.692h-1.082v-3.637c0-.959-.256-1.36-.826-1.36-.613,0-1,.491-1,1.36v3.637h-1.082v-5.878h.771l.111.658a1.615,1.615,0,0,1,1.461-.8C187.839,335.641,188.475,336.366,188.475,337.972Z"/><path class="cls-5" d="M193.74,333.589v8.075h-.781l-.078-.547a1.732,1.732,0,0,1-1.327.681c-1.1,0-1.864-.848-1.864-2.286v-1.618c0-1.416.726-2.253,1.864-2.253a1.6,1.6,0,0,1,1.137.479v-2.531Zm-1.049,4.305c0-.758-.368-1.227-.959-1.227-.625,0-.948.379-.948,1.227v1.618c0,.869.357,1.259.948,1.259.558,0,.959-.4.959-1.249Z"/><path class="cls-5" d="M195,334.124a.659.659,0,0,1,.681-.691.686.686,0,1,1,0,1.372A.656.656,0,0,1,195,334.124Zm.144,1.662h1.082v5.878h-1.082Z"/><path class="cls-5" d="M201.4,337.76v3.9h-.881l-.078-.547a1.441,1.441,0,0,1-1.305.692,1.707,1.707,0,0,1-1.807-1.818c0-1.2.837-1.818,2.131-1.818h.858v-.413c0-.692-.257-1.082-.847-1.082a.823.823,0,0,0-.893.781H197.5a1.826,1.826,0,0,1,2-1.818C200.755,335.641,201.4,336.41,201.4,337.76Zm-1.082,1.349h-.858c-.658,0-1.038.3-1.038.882a.826.826,0,0,0,.937.859.89.89,0,0,0,.959-.937Z"/><path class="cls-5" d="M206.8,337.972v3.692h-1.082v-3.637c0-.959-.257-1.36-.827-1.36-.613,0-1,.491-1,1.36v3.637h-1.082v-5.878h.77l.111.658a1.615,1.615,0,0,1,1.461-.8C206.163,335.641,206.8,336.366,206.8,337.972Z"/><path class="cls-5" d="M210.3,339.522h1.148a1.062,1.062,0,0,0,1.138,1.194,1,1,0,0,0,1.116-1.07c0-1.551-3.269-1.64-3.269-3.96a1.964,1.964,0,0,1,2.142-1.975,2.052,2.052,0,0,1,2.175,2.186H213.6c-.022-.747-.413-1.1-1.015-1.1a.888.888,0,0,0-1,.915c0,1.528,3.28,1.528,3.28,3.948a2.283,2.283,0,0,1-4.562-.134Z"/><path class="cls-5" d="M215.776,339.567v-1.695a2.075,2.075,0,1,1,4.139,0v1.695a2.075,2.075,0,1,1-4.139,0Zm3.046,0v-1.695c0-.826-.368-1.183-.982-1.183s-.97.357-.97,1.183v1.695c0,.826.368,1.182.97,1.182S218.822,340.393,218.822,339.567Z"/><path class="cls-5" d="M221.052,339.634v-1.852a1.9,1.9,0,0,1,1.986-2.141,1.938,1.938,0,0,1,2.041,2.141h-1.094c-.021-.747-.345-1.1-.936-1.1-.57,0-.9.357-.9,1.1v1.852c0,.747.334,1.115.9,1.115.6,0,.936-.368.97-1.115H225.1a1.964,1.964,0,0,1-2.063,2.153A1.9,1.9,0,0,1,221.052,339.634Z"/><path class="cls-5" d="M225.971,334.124a.659.659,0,0,1,.68-.691.686.686,0,1,1,0,1.372A.656.656,0,0,1,225.971,334.124Zm.144,1.662H227.2v5.878h-1.082Z"/><path class="cls-5" d="M232.607,339.823a1.964,1.964,0,0,1-2.141,1.964,1.94,1.94,0,0,1-2-2.209v-1.751a1.929,1.929,0,0,1,2.007-2.186,1.95,1.95,0,0,1,2.053,2.186v1.305h-2.978v.446c0,.8.345,1.171.937,1.171.658,0,.937-.29,1.037-.926Zm-3.056-2.008v.5h1.907v-.5c0-.8-.357-1.159-.97-1.159C229.9,336.656,229.551,337.013,229.551,337.815Z"/><path class="cls-5" d="M236.377,340.716v1.015h-.413a1.764,1.764,0,0,1-1.863-1.963v-3h-.826v-.982h.826v-1.394h1.071v1.394h1.094v.982h-1.094v3.011c0,.636.267.937.847.937Z"/><path class="cls-5" d="M241.373,335.786l-1.885,6.335c-.279.96-.691,1.662-1.573,1.662h-.579v-1.049h.367c.458,0,.6-.323.748-.8l.256-.881-1.9-5.265h1.138l1.216,3.726,1.093-3.726Z"/><path class="cls-5" d="M244.552,339.567v-1.695a2.075,2.075,0,1,1,4.138,0v1.695a2.075,2.075,0,1,1-4.138,0Zm3.046,0v-1.695c0-.826-.369-1.183-.983-1.183s-.97.357-.97,1.183v1.695c0,.826.369,1.182.97,1.182S247.6,340.393,247.6,339.567Z"/><path class="cls-5" d="M251.31,335.462v.324h1.138v.982H251.31v4.9h-1.071v-4.9h-.858v-.982h.858v-.324a1.807,1.807,0,0,1,1.975-2.029h.345v.981h-.345C251.6,334.414,251.31,334.727,251.31,335.462Z"/><path class="cls-5" d="M260.68,333.856v7.808h-1.127l-1.741-3.826c-.234-.58-.557-1.394-.747-1.9l-.033.022c.078.781.134,1.952.134,2.688v3.012h-1.115v-7.808h1.126l1.8,3.982c.234.524.524,1.25.713,1.718l.034-.023c-.089-.769-.157-1.94-.157-2.632v-3.045Z"/><path class="cls-5" d="M266.223,339.823a1.965,1.965,0,0,1-2.142,1.964,1.94,1.94,0,0,1-2-2.209v-1.751a1.929,1.929,0,0,1,2.008-2.186,1.95,1.95,0,0,1,2.052,2.186v1.305h-2.978v.446c0,.8.346,1.171.937,1.171.659,0,.937-.29,1.038-.926Zm-3.057-2.008v.5h1.907v-.5c0-.8-.356-1.159-.97-1.159C263.512,336.656,263.166,337.013,263.166,337.815Z"/><path class="cls-5" d="M271.453,337.928v1.617c0,1.428-.736,2.253-1.874,2.253a1.563,1.563,0,0,1-1.126-.469v2.343h-1.061v-7.9h.782l.078.547a1.742,1.742,0,0,1,1.327-.669C270.694,335.652,271.453,336.488,271.453,337.928Zm-1.1,0c0-.87-.346-1.261-.949-1.261-.557,0-.947.413-.947,1.249v1.629c0,.769.356,1.238.947,1.238.625,0,.949-.38.949-1.238Z"/><path class="cls-5" d="M276.706,338.084v3.58h-1.082v-3.547c0-1.049-.279-1.45-.826-1.45-.614,0-1,.491-1,1.36v3.637h-1.082V333.61h1.082v2.744a1.51,1.51,0,0,1,1.294-.713C276.114,335.641,276.706,336.422,276.706,338.084Z"/><path class="cls-5" d="M281.066,335.741v1.071a1.789,1.789,0,0,0-.724-.134c-.737,0-1.2.48-1.2,1.361v3.625h-1.082v-5.878h.77l.122.68a1.876,1.876,0,0,1,2.119-.725Z"/><path class="cls-5" d="M281.779,339.567v-1.695a2.075,2.075,0,1,1,4.139,0v1.695a2.075,2.075,0,1,1-4.139,0Zm3.046,0v-1.695c0-.826-.368-1.183-.982-1.183s-.97.357-.97,1.183v1.695c0,.826.368,1.182.97,1.182S284.825,340.393,284.825,339.567Z"/><path class="cls-5" d="M287.167,333.589h1.082v8.075h-1.082Z"/><path class="cls-5" d="M289.5,339.567v-1.695a2.075,2.075,0,1,1,4.139,0v1.695a2.075,2.075,0,1,1-4.139,0Zm3.046,0v-1.695c0-.826-.368-1.183-.983-1.183s-.969.357-.969,1.183v1.695c0,.826.368,1.182.969,1.182S292.543,340.393,292.543,339.567Z"/><path class="cls-5" d="M298.855,335.786v6.179a1.973,1.973,0,0,1-3.937.022h1.059a.824.824,0,0,0,.9.825.8.8,0,0,0,.881-.847v-.914a1.679,1.679,0,0,1-1.1.379,1.928,1.928,0,0,1-1.886-2.153v-1.4c0-1.384.782-2.231,1.874-2.231a1.644,1.644,0,0,1,1.328.613l.089-.468Zm-1.093,3.491v-1.472c0-.759-.39-1.127-.926-1.127-.613,0-.97.368-.97,1.194v1.4c0,.758.357,1.126.97,1.126C297.416,340.4,297.762,340.035,297.762,339.277Z"/><path class="cls-5" d="M304.22,335.786l-1.885,6.335c-.279.96-.692,1.662-1.573,1.662h-.579v-1.049h.367c.458,0,.6-.323.748-.8l.256-.881-1.9-5.265H300.8l1.216,3.726,1.092-3.726Z"/><g class="cls-16"><circle class="cls-17" cx="633.008" cy="282.635" r="57.573"/><rect class="cls-18" x="545.169" y="334.4" width="159.424" height="8.45"/><rect class="cls-18" x="545.169" y="329.119" width="152.638" height="6.162"/><rect class="cls-7" x="546.304" y="328.327" width="54.391" height="6.073"/><path class="cls-6" d="M598.734,260.369c5.534,11.806,11,22.828,20.2,31.474a45.361,45.361,0,0,0,10.312,7.305c.68.351,1.465.765,1.433,1.461-.029.645-.974.807-1.569,1.065-11.418,4.951-23.133,9.14-34.794,13.463-3.578,1.326-6.849,3.378-10.561,4.369-.24.064-.466.269-.7.265-.958-.014-2.231.95-2.781.012-.587-1,.9-1.382,1.514-1.939,7.419-6.7,10.863-15.5,13.243-24.869a131.259,131.259,0,0,0,2.59-13.632,111.5,111.5,0,0,0,.962-16.392C598.581,262.309,598.656,261.666,598.734,260.369Z"/><path class="cls-6" d="M602.353,314.708c17.5-7.413,35.6-12.072,51.859-21.349a1.286,1.286,0,0,1-.5,1.655c-8.175,7.327-16.39,14.676-26.908,18.513C619.033,316.362,611.063,318.348,602.353,314.708Z"/><path class="cls-6" d="M594.574,247.139a61.749,61.749,0,0,1-1.835,11.291c-1.339,5.886-2.209,11.863-3.658,17.724-.293,1.184-.678,1.581-1.785,1.384-1.065-.189-1.593-.653-1.3-1.89a263.487,263.487,0,0,1,7.8-27.426A7.354,7.354,0,0,1,594.574,247.139Z"/><path class="cls-2" d="M670,280.6c-2.926-2.389-5.925-4.664-8.862-7.053-.517-.434-12.668-9.369-13.216-9.752a234.894,234.894,0,0,0-36.174-20.372c-.962-.445-1.965-.828-2.906-1.3-2.555-1.272-6.081-1.572-5.7-5.854a17.171,17.171,0,0,0-2.389-.7c-1.831-.248-2.369-1.1-1.7-2.937a17.167,17.167,0,0,0,.744-3.733,1.624,1.624,0,0,0-1.158-1.985,1.821,1.821,0,0,0-2.265,1.075,4.907,4.907,0,0,0-.589,1.406c-.486,2.824-1.221,5.078-4.757,3.206a1.678,1.678,0,0,0-2.193.714,1.618,1.618,0,0,0-.01,1.7c2.11,4.178,1.913,4.684-1.644,7.756a218.257,218.257,0,0,0-20.621,20.765c-7.094,8.046-12.554,17.332-18.283,26.4-1.789,2.864-3.268,5.925-4.788,8.945-.486.972-.776,2.73.8,2.42,2.337-.476,2.668,1.044,3.361,2.43,4.6,9.142,4.56,9.132-.59,18.263a14.383,14.383,0,0,0-1.716,3.485,5.259,5.259,0,0,0-.176,1.375l.031,16.009h3.723c0-1.365-.021-2.72-.042-4.075-.062-3.123,2.182-1.747,3.547-2.016,1.552-.311,2.6.155,2.389,2.12-.113,1.013.052,2.047-.041,3.081a4.259,4.259,0,0,0,0,.89h3.692c.062-1.252-.041-2.513.052-3.764.062-.766-.383-1.676.465-2.286a86.148,86.148,0,0,1,10.827-.031c4.406-.072,3.992-.869,4.106,4.044.021.672.01,1.354,0,2.037h3.475c.031-1.469.041-2.937,0-4.406-.052-1.582.744-1.82,2-1.8,3.413.052,6.815.1,10.207.031,1.655-.021,2.493.486,2.275,2.347-.155,1.272-.072,2.555-.1,3.827.993-.021,1.985-.052,2.968-.073a21.481,21.481,0,0,0,.434-3.774c-.093-1.789.559-2.379,2.265-2.389,1.893-.021,1.955,1.065,1.862,2.461-.063.921-.094,1.851-.145,2.792.734,1.324,1.965.776,3.04.838.052-2.989.176-5.977.114-8.945a2.952,2.952,0,0,1,.579-2.2,5.171,5.171,0,0,0,.641-1.851,4.678,4.678,0,0,0-.258-2.037c-.031-.021-.073-.042-.1-.062-.786-1.21-1.7-1.882-3.257-1.345a9.107,9.107,0,0,1-2.72.114c-1.024.01-1.655-.207-1.768-.91a2.794,2.794,0,0,1,.175-1.272,16.04,16.04,0,0,0,.362-3.547c.249-2.813,2.11-4.281,4.613-3.278,7.487,3.03,15,1.985,22.523.341.724-.155,1.427-.352,2.13-.5.021-.011.042-.011.052-.021.962-.3,1.986-.662,3.082-1.117a37.107,37.107,0,0,0,3.516-1.706l.021-.021a1.5,1.5,0,0,1,.206-.124l.124-.062c.745-.331,1.479-.693,2.193-1.076,5.843-3.092,10.755-7.538,15.646-11.985,4.406-4.013,8.553-8.315,12.772-12.555a23.109,23.109,0,0,1,6.763-4.25C671.975,283.17,672.109,282.322,670,280.6ZM598.82,243.056c1.137-.455,1.841,1.385,2.533,2.337,6.722,9.2,15.492,16.35,23.175,24.571.973,1.044,1.976,2.079,3.01,3.071.775.724,3.568,3.692,4.054,4.209,2.1,2.172,4.209,4.344,6.287,6.526.321.32,8.149,7.4,8.49,8.48a.719.719,0,0,1-.279.868c-.4.341-8.893,4.168-11.365,4.323-2.285.124-8.377-3.713-9.1-4.323q-2.018-1.69-4.054-3.371c-.414-.341-5.812-6.484-6.712-7.591-7.507-9.348-12.141-20.248-16.112-31.51a13.793,13.793,0,0,1-.372-4.26C598.665,245.383,597.724,243.5,598.82,243.056Zm-1.427,35.315a117.164,117.164,0,0,0,.961-16.815c0-.661.073-1.313.145-2.647,5.523,12.11,10.972,23.413,20.145,32.275a44.955,44.955,0,0,0,10.279,7.5,2.733,2.733,0,0,1,1.355,1.117.815.815,0,0,1,.073.382c-.021.662-.972.828-1.562,1.086-11.386,5.088-23.071,9.39-34.695,13.816-3.578,1.365-6.836,3.465-10.538,4.478a2.9,2.9,0,0,0-.414.2.584.584,0,0,1-.279.082c-.951-.01-2.223.972-2.771.011-.58-1.024.9-1.417,1.509-1.986,7.4-6.877,10.838-15.905,13.217-25.512A139.248,139.248,0,0,0,597.393,278.371Zm-48.625,52.938c-.031-3.165,1.934-2.151,3.464-2.337,1.7-.2,2.637.124,2.678,2.368.042,2.792-1.644,2.089-3.1,2.172C550.371,333.429,548.778,334.091,548.768,331.309Zm25.067.806c.083.962-.341,1.4-1.3,1.334-3.961-.217-7.911.445-11.851,0-2.161.383-2.265-.9-2.317-2.647-.062-2.11,1.231-1.81,2.431-1.758,4.24.176,8.511-.486,12.73.331C574.042,330.244,573.742,331.2,573.835,332.115Zm3.506-.817c.052-2.047.837-2.388,2.554-2.337,3.382.1,6.794.114,10.2,0,1.778-.062,1.789.962,1.789,2.244s.082,2.42-1.727,2.307-3.64-.011-5.471-.011c-1.582-.02-3.144-.072-4.726,0C578.406,333.574,577.289,333.532,577.341,331.3Zm21.924.063c-.052,1.292.01,2.264-1.81,2.192-1.7-.072-2.544-.476-2.131-2.317-.31-1.665.29-2.337,1.976-2.316C599.058,328.951,599.327,329.861,599.265,331.361Zm-19.442-32.234c1.51-5.74,3.05-11.479,4.509-17.229.3-1.22.879-1.407,1.944-1.241,1.189.207,1.261,1.034,1.034,1.9-2.472,9.638-2.885,19.7-5.481,29.317-.465,1.707-.951,3.465-2.751,4.3a10.5,10.5,0,0,1-5.036,3.868c1.086-4.105,1.944-7.859,3.082-11.541.848-2.761,1.158-5.719,2.678-8.263C579.492,299.871,579.709,299.5,579.823,299.127Zm3.154-23.641q-6.655,23.672-13.247,47.353a4.85,4.85,0,0,1-1.386,2.627,3.3,3.3,0,0,1-2.585.507c-2.958-.362-5.967-.207-8.956-.29-.01-.072-.01-.145-.021-.217a36.147,36.147,0,0,0-2.068-8.542,2.311,2.311,0,0,1,.289-2.11c10.569-18.924,20.745-38.066,31.976-56.577a4.613,4.613,0,0,0,.331-.683c.227.124.445.238.672.352C586.317,263.769,584.631,269.633,582.977,275.486Zm-4.437,50.435c-2.14.1-4.3.021-6.453.021-.01-.155-.02-.321-.041-.476,0-.072-.01-.145-.01-.217,2.006-.559,4.033-1.138,6.049-1.676.518-.144,1.241-.5,1.231.528a4.616,4.616,0,0,1-.021,1.365C579.2,325.714,578.985,325.89,578.54,325.921Zm17.2-68.791c.527,17.467-2,34.313-9.328,50.239-.279-.052-.569-.1-.858-.176q4.746-25.1,9.452-50.207C595.242,257.027,595.5,257.079,595.738,257.13Zm-2.161-9.617a8.3,8.3,0,0,1,.765-1.107c-.021.383-.041.755-.072,1.138v.01a72.013,72.013,0,0,1-1.738,10.435c-1.344,6.029-2.213,12.161-3.65,18.18-.2.8-.435,1.251-.9,1.4l-.01.01a1.645,1.645,0,0,1-.879.01c-1.055-.2-1.593-.672-1.3-1.944A277.35,277.35,0,0,1,593.577,247.513Zm-46.04,52.131c-.414-.869.331-1.634.714-2.348A175.931,175.931,0,0,1,587.7,246.623c.631-.558,1.241-1.127,1.851-1.685.134.093.258.186.383.289-12.2,21.748-24.416,43.486-36.878,65.7C551.105,306.945,549.285,303.325,547.537,299.644Zm2.647,23.992a7.955,7.955,0,0,1,1.365-2.575,17.209,17.209,0,0,0,1.717-3.1c.486,1.582.879,2.689,1.169,3.826.465,1.82.506,3.02.041,3.682-.548.8-1.789.858-3.878.341a1.434,1.434,0,0,1-.682-.341C549.419,324.928,549.988,324.091,550.184,323.636Zm37.054,2.626a14.165,14.165,0,0,1-2.482-.031c-.9-.155-2.482.7-2.606-.765a.512.512,0,0,1-.011-.134c-.031-1.417-.083-3.258,2.058-3.827,2.637-.7,5.181-1.7,7.777-2.564,1.189-.393,2.078-.476,1.448,1.3-.093.31-.062.672-.124,1-.476,2.316-.724,3.547-1.366,4.219C591.2,326.242,589.937,326.242,587.238,326.262Zm23.371-9.628c-.228-.01-.455-.031-.682-.051a1.3,1.3,0,0,1-.2-.021c-.052,0-.114-.01-.166-.01a18.763,18.763,0,0,1-2.233-.321,23.722,23.722,0,0,1-5.223-1.592c17.457-7.6,35.492-12.379,51.718-21.893a1.539,1.539,0,0,1,.113.765,1.685,1.685,0,0,1-.62.941c-8.149,7.508-16.35,15.047-26.836,18.977-5.119,1.923-10.321,3.464-15.771,3.205Zm54.354-33.857c-5.026,2.9-9.959,5.967-15.129,8.594-2.2,1.106-2.844-1.448-4.106-2.731-1.189-1.3-4.085-3.557-4.488-4.146-2.368-3.31-11.6-12.255-12.192-12.865Q616.886,259,604.735,246.365a32.439,32.439,0,0,1-2.141-2.7,131.24,131.24,0,0,1,21.893,9.638,224.358,224.358,0,0,1,23.8,14.354c.342.238.724.413,1.045.682.745.652,11.851,9.432,15.822,12.72C665.977,281.753,665.853,282.28,664.963,282.777Z"/></g><path class="cls-3" d="M172.7,365.805c0,2.772-1.434,4.283-3.976,4.283H166.9v4.875h-1.568V361.579h3.385C171.262,361.579,172.7,363.109,172.7,365.805Zm-1.587,0c0-1.817-.784-2.735-2.389-2.735H166.9V368.6h1.817C170.325,368.6,171.109,367.717,171.109,365.805Z"/><path class="cls-3" d="M181.143,369.915h-1.357v5.048h-1.568V361.579h3.269c2.524,0,3.92,1.491,3.92,4.054,0,2.2-.975,3.651-2.658,4.13l3.1,5.2h-1.779Zm-1.357-1.472h1.682c1.548,0,2.352-.975,2.352-2.753,0-1.74-.8-2.638-2.333-2.638h-1.7Z"/><path class="cls-3" d="M198.1,373.49v1.473h-6.616V361.579h6.406v1.453H193.05v4.417h4.492v1.434H193.05v4.607Z"/><path class="cls-3" d="M203.7,371.1v-5.66c0-2.638,1.491-4.11,3.729-4.11,2.294,0,3.709,1.415,3.842,4h-1.548c-.115-1.721-.917-2.524-2.314-2.524-1.28,0-2.14.842-2.14,2.638v5.66c0,1.778.9,2.619,2.2,2.619,1.415,0,2.2-.822,2.351-2.5h1.549c-.153,2.543-1.567,3.976-3.9,3.976C205.206,375.192,203.7,373.739,203.7,371.1Z"/><path class="cls-3" d="M218.738,361.579v13.384H217.17V361.579Z"/><path class="cls-3" d="M224.528,371.406h1.587a2.09,2.09,0,0,0,2.218,2.3,1.979,1.979,0,0,0,2.16-2.16c0-2.868-5.755-2.945-5.755-6.884a3.314,3.314,0,0,1,3.575-3.326A3.468,3.468,0,0,1,231.927,365h-1.586c-.058-1.473-.842-2.161-2.008-2.161a1.788,1.788,0,0,0-2.008,1.836c0,2.848,5.774,2.791,5.774,6.883a3.546,3.546,0,0,1-3.748,3.652A3.6,3.6,0,0,1,224.528,371.406Z"/><path class="cls-3" d="M239.323,361.579v13.384h-1.568V361.579Z"/><path class="cls-3" d="M245.591,370.757v-4.99c0-2.735,1.491-4.436,3.976-4.436s3.958,1.7,3.958,4.436v4.99c0,2.753-1.471,4.455-3.958,4.455S245.591,373.51,245.591,370.757Zm6.329,0v-4.99c0-1.855-.8-2.907-2.353-2.907-1.567,0-2.37,1.052-2.37,2.907v4.99c0,1.873.8,2.925,2.37,2.925C251.116,373.682,251.92,372.63,251.92,370.757Z"/><path class="cls-3" d="M267.44,361.579v13.384h-1.587l-3.288-7.189c-.421-.956-1.033-2.486-1.319-3.251l-.058.02c.077,1.186.154,2.964.154,4.11v6.31h-1.569V361.579h1.587l3.346,7.3c.44.918,1.033,2.333,1.339,3.116l.057-.019c-.095-1.166-.211-3.04-.211-4.206v-6.195Z"/><path class="cls-3" d="M281.505,374.122a1.033,1.033,0,1,1,1.032,1.051A.984.984,0,0,1,281.505,374.122Z"/><path class="cls-3" d="M304.232,373.49v1.473h-6.615V361.579h6.4v1.453h-4.837v4.417h4.493v1.434h-4.493v4.607Z"/><path class="cls-3" d="M315.489,374.963l-2.351-5.392-2.352,5.392h-1.74L312.259,368l-3.04-6.425h1.739l2.18,4.933,2.179-4.933h1.741L314.017,368l3.212,6.959Z"/><path class="cls-3" d="M322.178,371.1v-5.66c0-2.638,1.491-4.11,3.728-4.11,2.294,0,3.709,1.415,3.843,4H328.2c-.114-1.721-.917-2.524-2.313-2.524-1.281,0-2.141.842-2.141,2.638v5.66c0,1.778.9,2.619,2.2,2.619,1.415,0,2.2-.822,2.352-2.5h1.549c-.154,2.543-1.568,3.976-3.9,3.976C323.688,375.192,322.178,373.739,322.178,371.1Z"/><path class="cls-3" d="M342.267,373.49v1.473h-6.615V361.579h6.406v1.453h-4.837v4.417h4.492v1.434h-4.492v4.607Z"/><path class="cls-3" d="M354.463,373.472v1.491h-6.234V361.579H349.8v11.893Z"/><path class="cls-3" d="M366.064,373.472v1.491h-6.233V361.579H361.4v11.893Z"/><path class="cls-3" d="M378.048,373.49v1.473h-6.615V361.579h6.405v1.453H373v4.417h4.492v1.434H373v4.607Z"/><path class="cls-3" d="M391.677,361.579v13.384H390.09l-3.288-7.189c-.421-.956-1.034-2.486-1.32-3.251l-.057.02c.076,1.186.153,2.964.153,4.11v6.31H384.01V361.579H385.6l3.345,7.3c.441.918,1.033,2.333,1.339,3.116l.058-.019c-.1-1.166-.211-3.04-.211-4.206v-6.195Z"/><path class="cls-3" d="M397.942,371.1v-5.66c0-2.638,1.491-4.11,3.729-4.11,2.294,0,3.709,1.415,3.843,4h-1.549c-.115-1.721-.917-2.524-2.314-2.524-1.28,0-2.14.842-2.14,2.638v5.66c0,1.778.9,2.619,2.2,2.619,1.415,0,2.2-.822,2.351-2.5h1.549c-.153,2.543-1.567,3.976-3.9,3.976C399.453,375.192,397.942,373.739,397.942,371.1Z"/><path class="cls-3" d="M418.033,373.49v1.473h-6.615V361.579h6.4v1.453h-4.837v4.417h4.492v1.434h-4.492v4.607Z"/><path class="cls-3" d="M431.429,374.122a1.033,1.033,0,1,1,1.032,1.051A.983.983,0,0,1,431.429,374.122Z"/><path class="cls-3" d="M449.109,361.579v13.384h-1.568V361.579Z"/><path class="cls-3" d="M463.407,361.579v13.384H461.82l-3.288-7.189c-.421-.956-1.033-2.486-1.319-3.251l-.058.02c.076,1.186.153,2.964.153,4.11v6.31H455.74V361.579h1.587l3.346,7.3c.44.918,1.033,2.333,1.339,3.116l.057-.019c-.1-1.166-.211-3.04-.211-4.206v-6.195Z"/><path class="cls-3" d="M477.7,361.579v13.384h-1.587l-3.288-7.189c-.421-.956-1.033-2.486-1.319-3.251l-.058.02c.076,1.186.153,2.964.153,4.11v6.31h-1.568V361.579h1.587l3.346,7.3c.44.918,1.033,2.333,1.338,3.116l.058-.019c-.1-1.166-.211-3.04-.211-4.206v-6.195Z"/><path class="cls-3" d="M483.971,370.757v-4.99c0-2.735,1.491-4.436,3.976-4.436s3.958,1.7,3.958,4.436v4.99c0,2.753-1.472,4.455-3.958,4.455S483.971,373.51,483.971,370.757Zm6.329,0v-4.99c0-1.855-.8-2.907-2.353-2.907-1.567,0-2.37,1.052-2.37,2.907v4.99c0,1.873.8,2.925,2.37,2.925C489.5,373.682,490.3,372.63,490.3,370.757Z"/><path class="cls-3" d="M496.929,361.579h1.644l1.817,7.859c.287,1.281.5,2.427.726,3.479h.076c.21-1.052.44-2.2.727-3.479l1.8-7.859h1.664l-3.346,13.384h-1.76Z"/><path class="cls-3" d="M515.28,372.057H511.4l-.707,2.906h-1.644l3.441-13.384h1.7l3.442,13.384h-1.645Zm-.345-1.453-1.089-4.532c-.21-.86-.4-1.988-.478-2.5h-.058c-.076.517-.267,1.645-.477,2.5l-1.09,4.532Z"/><path class="cls-3" d="M528.583,363.052h-2.867v11.911h-1.587V363.052h-2.868v-1.473h7.322Z"/><path class="cls-3" d="M535.636,361.579v13.384h-1.569V361.579Z"/><path class="cls-3" d="M541.9,370.757v-4.99c0-2.735,1.491-4.436,3.977-4.436s3.958,1.7,3.958,4.436v4.99c0,2.753-1.472,4.455-3.958,4.455S541.9,373.51,541.9,370.757Zm6.329,0v-4.99c0-1.855-.8-2.907-2.352-2.907-1.568,0-2.37,1.052-2.37,2.907v4.99c0,1.873.8,2.925,2.37,2.925C547.429,373.682,548.232,372.63,548.232,370.757Z"/><path class="cls-3" d="M563.752,361.579v13.384h-1.587l-3.288-7.189c-.421-.956-1.033-2.486-1.319-3.251l-.058.02c.076,1.186.153,2.964.153,4.11v6.31h-1.568V361.579h1.587l3.345,7.3c.441.918,1.034,2.333,1.339,3.116l.058-.019c-.1-1.166-.211-3.04-.211-4.206v-6.195Z"/><path class="cls-4" d="M589.439,369.915h-1.357v5.048h-1.568V361.579h3.269c2.524,0,3.92,1.491,3.92,4.054,0,2.2-.976,3.651-2.658,4.13l3.1,5.2h-1.778Zm-1.357-1.472h1.682c1.548,0,2.352-.975,2.352-2.753,0-1.74-.8-2.638-2.333-2.638h-1.7Z"/><path class="cls-4" d="M606.392,373.49v1.473h-6.615V361.579h6.406v1.453h-4.837v4.417h4.492v1.434h-4.492v4.607Z"/><path class="cls-4" d="M620.021,361.579v13.384h-1.587l-3.288-7.189c-.421-.956-1.033-2.486-1.319-3.251l-.058.02c.077,1.186.154,2.964.154,4.11v6.31h-1.569V361.579h1.587l3.346,7.3c.44.918,1.033,2.333,1.339,3.116l.057-.019c-.1-1.166-.21-3.04-.21-4.206v-6.195Z"/><path class="cls-4" d="M631.66,372.057h-3.882l-.707,2.906h-1.644l3.441-13.384h1.7l3.442,13.384h-1.645Zm-.345-1.453-1.09-4.532c-.209-.86-.4-1.988-.477-2.5h-.058c-.076.517-.267,1.645-.477,2.5l-1.09,4.532Z"/><path class="cls-4" d="M645.633,373.472v1.491H639.4V361.579h1.569v11.893Z"/><path class="cls-4" d="M658.7,371.1v-5.66c0-2.638,1.491-4.11,3.729-4.11,2.293,0,3.709,1.415,3.842,4h-1.549c-.114-1.721-.917-2.524-2.313-2.524-1.28,0-2.141.842-2.141,2.638v5.66c0,1.778.9,2.619,2.2,2.619,1.415,0,2.2-.822,2.351-2.5h1.549c-.153,2.543-1.567,3.976-3.9,3.976C660.214,375.192,658.7,373.739,658.7,371.1Z"/><path class="cls-4" d="M676.807,372.057h-3.882l-.707,2.906h-1.645l3.442-13.384h1.7l3.441,13.384h-1.644Zm-.345-1.453-1.09-4.532c-.21-.86-.4-1.988-.478-2.5h-.057c-.076.517-.268,1.645-.478,2.5l-1.09,4.532Z"/><path class="cls-4" d="M687.471,369.915h-1.358v5.048h-1.568V361.579h3.269c2.524,0,3.92,1.491,3.92,4.054,0,2.2-.975,3.651-2.658,4.13l3.1,5.2H690.4Zm-1.358-1.472H687.8c1.549,0,2.352-.975,2.352-2.753,0-1.74-.8-2.638-2.333-2.638h-1.7Z"/><path class="cls-4" d="M704.425,373.49v1.473h-6.616V361.579h6.406v1.453h-4.837v4.417h4.492v1.434h-4.492v4.607Z"/></svg>